<?xml version="1.0" encoding="UTF-8" standalone="no"?>
<!-- Created with Inkscape (http://www.inkscape.org/) -->

<svg
   width="1024"
   height="1024"
   viewBox="0 0 270.9333 270.9333"
   version="1.1"
   id="svg1"
   inkscape:version="1.4 (e7c3feb100, 2024-10-09)"
   sodipodi:docname="logo-template.svg"
   xmlns:inkscape="http://www.inkscape.org/namespaces/inkscape"
   xmlns:sodipodi="http://sodipodi.sourceforge.net/DTD/sodipodi-0.dtd"
   xmlns="http://www.w3.org/2000/svg"
   xmlns:svg="http://www.w3.org/2000/svg">
  <sodipodi:namedview
     id="namedview1"
     pagecolor="#ffffff"
     bordercolor="#000000"
     borderopacity="0.25"
     inkscape:showpageshadow="2"
     inkscape:pageopacity="0.0"
     inkscape:pagecheckerboard="0"
     inkscape:deskcolor="#d1d1d1"
     inkscape:document-units="mm"
     inkscape:zoom="1.2170661"
     inkscape:cx="1500.3293"
     inkscape:cy="620.34428"
     inkscape:window-width="3760"
     inkscape:window-height="2082"
     inkscape:window-x="80"
     inkscape:window-y="42"
     inkscape:window-maximized="1"
     inkscape:current-layer="text2" />
  <defs
     id="defs1">
    <rect
       x="2507.5654"
       y="757.61476"
       width="174.29789"
       height="92.3061"
       id="rect28" />
  </defs>
  <g
     inkscape:label="Layer 1"
     inkscape:groupmode="layer"
     id="layer1">
    <path
       id="rect1"
       style="vector-effect:non-scaling-stroke;fill:#ffffff;stroke-width:0.264583;-inkscape-stroke:hairline"
       d="M 0,0 H 135.46666 V 135.46666 H 0 Z" />
    <path
       id="rect2"
       style="vector-effect:non-scaling-stroke;fill:#173f4f;stroke-width:0.264583;-inkscape-stroke:hairline"
       d="M 135.46667,0 H 270.93333 V 135.46666 H 135.46667 Z" />
    <g
       id="g5"
       transform="translate(0.16598966,-0.40489188)">
      <path
         d="m 67.567546,12.628544 c -20.032839,0 -36.27507,16.240506 -36.27507,36.274644 0,20.034565 16.242665,36.27549 36.27507,36.27549 20.031972,0 36.274654,-16.240925 36.274654,-36.27549 0,-20.034138 -16.242682,-36.274644 -36.274654,-36.274644 z m 0.173464,5.023491 c 17.260896,0 31.265015,13.992848 31.265015,31.251153 0,17.260896 -14.005853,31.251563 -31.265015,31.251563 -9.320181,0 -17.68328,-4.084625 -23.408434,-10.555226 2.353896,-1.827445 6.292379,-1.381647 11.142847,-0.828723 2.324406,0.264522 4.974492,0.56766 7.709141,0.628369 7.641056,0.04425 15.862781,-1.349981 20.937016,-3.56771 3.28019,-1.438882 5.380835,-2.385992 6.693945,-3.581151 0.47356,-0.388121 0.72161,-1.036879 0.97487,-1.709911 l 0.17346,-0.454042 c 0.21249,-0.543811 0.51822,-1.713385 0.65482,-2.351719 0.0611,-0.27929 0.0915,-0.579805 -0.10668,-0.734627 l -0.70817,0.133581 c -2.22683,1.335246 -7.788931,3.877781 -13.000634,3.981858 -6.457605,0.13522 -19.472119,-6.500971 -20.82947,-7.201326 l -0.133564,-0.16046 c -0.325244,-0.776684 -2.273236,-5.400351 -2.685645,-6.373046 9.368318,6.169233 17.135135,9.583859 23.087961,10.114214 6.61849,0.588049 11.780762,-3.025636 13.988942,-4.569448 0.43106,-0.294025 0.75977,-0.524734 0.89507,-0.574609 l 0.14658,-0.240674 C 92.907055,49.784393 89.434325,38.527058 86.819799,35.823195 86.094723,35.081652 85.518824,34.359613 84.348381,33.672256 74.884225,28.156124 52.412059,24.833873 51.360005,24.680363 l -0.173897,0.05376 -0.06679,0.14702 c 0,0 -0.08413,4.666151 -0.09367,5.183951 -0.771044,-0.254999 -3.162236,-1.03819 -6.586833,-1.977481 4.469281,-5.529589 11.317611,-10.435561 23.302188,-10.435561 z m 8.257285,16.541037 c 0.159149,-0.0033 0.320039,-0.0049 0.480927,0 5.301471,0.190372 9.466758,4.655743 9.285488,9.953754 -0.0941,2.562907 -1.174779,4.931115 -3.046449,6.680494 -1.876873,1.758491 -4.316199,2.675246 -6.89343,2.591983 -5.292797,-0.197748 -9.458084,-4.663135 -9.286356,-9.953754 0.09064,-2.566824 1.176948,-4.95021 3.059893,-6.69395 1.757616,-1.648333 4.007435,-2.542534 6.399927,-2.578527 z m -0.254124,2.832641 c -1.544256,0.09408 -3.000915,0.721187 -4.141868,1.790584 -1.300108,1.220318 -2.067684,2.872978 -2.124059,4.663118 -0.122731,3.698243 2.771509,6.8106 6.466711,6.947639 1.795779,0.05507 3.497886,-0.573724 4.809268,-1.790567 1.307913,-1.226383 2.068983,-2.89381 2.124925,-4.676133 0.123599,-3.704323 -2.784085,-6.804978 -6.480153,-6.934641 -0.223335,-0.0082 -0.434526,-0.01311 -0.654824,0 z m 1.763687,3.35349 c 1.642264,0 2.966222,0.892465 2.966222,1.990922 0,1.093244 -1.323958,1.990921 -2.966222,1.990921 -1.647467,0 -2.979665,-0.899414 -2.979665,-1.990921 0,-1.098457 1.332198,-1.990922 2.979665,-1.990922 z"
         id="path1"
         style="fill:#73ba25;fill-opacity:1;stroke-width:0.264583" />
      <g
         id="text2"
         style="font-weight:bold;font-size:22.6722px;line-height:0.7;font-family:'Source Sans Pro';-inkscape-font-specification:'Source Sans Pro Bold';text-align:end;text-anchor:end;fill:#173f4f;stroke-width:0.264583"
         inkscape:transform-center-x="-2.7051473"
         inkscape:transform-center-y="4.9594278"
         aria-label="openSUSE&#10;Asia Summit 2025">
        <path
           style="text-align:center;text-anchor:middle"
           d="m 22.676377,107.91339 c 2.834025,0 5.464,-2.15386 5.464,-5.89477 0,-3.740911 -2.629975,-5.89477 -5.464,-5.89477 -2.856697,0 -5.486673,2.153859 -5.486673,5.89477 0,3.74091 2.629976,5.89477 5.486673,5.89477 z m 0,-2.69799 c -1.383005,0 -2.063171,-1.24697 -2.063171,-3.19678 0,-1.94981 0.680166,-3.196779 2.063171,-3.196779 1.360332,0 2.06317,1.246969 2.06317,3.196779 0,1.94981 -0.702838,3.19678 -2.06317,3.19678 z m 7.753899,6.59761 h 3.332813 v -3.28747 l -0.113361,-1.7911 c 0.793527,0.74818 1.700415,1.17895 2.675319,1.17895 2.425926,0 4.73849,-2.22187 4.73849,-6.07615 0,-3.468843 -1.677743,-5.71339 -4.398407,-5.71339 -1.178954,0 -2.312564,0.589477 -3.19678,1.383004 h -0.09069 L 33.15094,96.395916 h -2.720664 z m 5.123917,-6.62028 c -0.566805,0 -1.201627,-0.18138 -1.791104,-0.72551 v -4.602457 c 0.657494,-0.702839 1.246971,-1.020249 1.927137,-1.020249 1.33766,0 1.949809,1.020249 1.949809,3.038076 0,2.31256 -0.92956,3.31014 -2.085842,3.31014 z m 12.900479,2.72066 c 1.33766,0 2.834025,-0.47611 3.990307,-1.26964 l -1.110938,-2.01783 c -0.816199,0.49879 -1.587054,0.74819 -2.425925,0.74819 -1.496365,0 -2.629975,-0.74819 -2.924714,-2.38058 h 6.733643 c 0.06802,-0.27207 0.136034,-0.88422 0.136034,-1.4737 0,-3.060744 -1.587054,-5.39598 -4.783835,-5.39598 -2.697991,0 -5.305294,2.244547 -5.305294,5.89477 0,3.71824 2.47127,5.89477 5.690722,5.89477 z m -2.493942,-7.11907 c 0.226722,-1.428346 1.13361,-2.131184 2.176531,-2.131184 1.33766,0 1.881793,0.884216 1.881793,2.131184 z m 9.204904,6.84701 h 3.332813 v -7.59519 c 0.725511,-0.702838 1.246971,-1.088265 2.085842,-1.088265 0.952233,0 1.383005,0.498788 1.383005,2.131185 v 6.55227 h 3.332813 v -6.98304 c 0,-2.811353 -1.042921,-4.53444 -3.491519,-4.53444 -1.519037,0 -2.652647,0.793527 -3.604879,1.700415 h -0.09069 l -0.226722,-1.428349 h -2.720664 z m 17.752347,0.27206 c 3.536863,0 5.577361,-2.13118 5.577361,-4.57978 0,-2.08584 -1.13361,-3.28747 -2.924713,-4.01298 l -1.904465,-0.770855 c -1.269643,-0.521461 -2.244548,-0.838871 -2.244548,-1.745759 0,-0.838872 0.725511,-1.33766 1.881793,-1.33766 1.178954,0 2.085842,0.430772 3.060747,1.178954 l 1.700415,-2.108514 c -1.269644,-1.269643 -3.060747,-1.949809 -4.761162,-1.949809 -3.083419,0 -5.25995,1.949809 -5.25995,4.398406 0,2.153859 1.45102,3.423507 2.970058,4.035647 l 1.927137,0.8162 c 1.292315,0.54414 2.131186,0.83888 2.131186,1.76844 0,0.88421 -0.680166,1.42834 -2.06317,1.42834 -1.224299,0 -2.584631,-0.63482 -3.650224,-1.54171 l -1.904465,2.2899 c 1.496366,1.40567 3.536863,2.13118 5.464,2.13118 z m 13.920724,0 c 3.808929,0 5.826755,-2.15386 5.826755,-7.11907 v -7.935267 h -3.219452 v 8.275357 c 0,2.90204 -0.952233,3.89961 -2.607303,3.89961 -1.655071,0 -2.561959,-0.99757 -2.561959,-3.89961 v -8.275357 h -3.355485 v 7.935267 c 0,4.96521 2.085842,7.11907 5.917444,7.11907 z m 13.535315,0 c 3.53686,0 5.57736,-2.13118 5.57736,-4.57978 0,-2.08584 -1.13361,-3.28747 -2.92471,-4.01298 l -1.90447,-0.770855 c -1.26964,-0.521461 -2.244544,-0.838871 -2.244544,-1.745759 0,-0.838872 0.72551,-1.33766 1.881794,-1.33766 1.17895,0 2.08584,0.430772 3.06075,1.178954 l 1.70041,-2.108514 c -1.26964,-1.269643 -3.06075,-1.949809 -4.76116,-1.949809 -3.083421,0 -5.259952,1.949809 -5.259952,4.398406 0,2.153859 1.451021,3.423507 2.970058,4.035647 l 1.927134,0.8162 c 1.29232,0.54414 2.13119,0.83888 2.13119,1.76844 0,0.88421 -0.68017,1.42834 -2.06317,1.42834 -1.224299,0 -2.584631,-0.63482 -3.650224,-1.54171 l -1.904465,2.2899 c 1.496365,1.40567 3.536863,2.13118 5.463999,2.13118 z m 8.09398,-0.27206 h 9.47698 v -2.81136 h -6.14417 v -3.40083 h 5.03323 v -2.788676 h -5.03323 v -2.970058 h 5.91744 V 92.859053 H 108.468 Z"
           id="path22" />
        <path
           style="font-size:11.3361px;text-align:center;text-anchor:middle"
           d="m 25.918506,119.77095 c 0.20405,-0.73684 0.396764,-1.59839 0.578141,-2.38058 h 0.04535 c 0.192714,0.77086 0.396763,1.64374 0.600813,2.38058 l 0.170042,0.68017 h -1.575718 z m -2.675319,3.74092 h 1.700415 l 0.453444,-1.7571 h 2.255884 l 0.453444,1.7571 h 1.768431 l -2.312564,-7.39114 h -2.00649 z m 9.114223,0.13603 c 1.507701,0 2.312564,-0.79353 2.312564,-1.81378 0,-1.03158 -0.804863,-1.42835 -1.519037,-1.68908 -0.578141,-0.21538 -1.07693,-0.35141 -1.07693,-0.71417 0,-0.2834 0.215386,-0.44211 0.646158,-0.44211 0.385427,0 0.782191,0.18138 1.178954,0.47612 l 0.748183,-0.99758 c -0.476116,-0.36275 -1.122274,-0.71417 -1.983818,-0.71417 -1.292315,0 -2.153859,0.71417 -2.153859,1.75709 0,0.92956 0.782191,1.39434 1.462357,1.65507 0.578141,0.22673 1.144946,0.39677 1.144946,0.77086 0,0.29474 -0.215385,0.47611 -0.714174,0.47611 -0.476116,0 -0.940896,-0.20405 -1.451021,-0.58947 l -0.748182,1.04292 c 0.566805,0.46478 1.417012,0.78219 2.153859,0.78219 z m 3.36683,-0.13603 h 1.666407 v -5.62271 H 35.72424 Z m 0.827536,-6.45024 c 0.555468,0 0.940896,-0.34009 0.940896,-0.87288 0,-0.52146 -0.385428,-0.87288 -0.940896,-0.87288 -0.555469,0 -0.940897,0.35142 -0.940897,0.87288 0,0.53279 0.385428,0.87288 0.940897,0.87288 z m 3.718229,6.58627 c 0.634822,0 1.156283,-0.29474 1.632399,-0.71417 h 0.04534 l 0.113361,0.57814 h 1.360332 v -3.21946 c 0,-1.72308 -0.793527,-2.53928 -2.233211,-2.53928 -0.884216,0 -1.689079,0.30607 -2.403254,0.73684 l 0.600814,1.09961 c 0.544132,-0.31742 1.008913,-0.51013 1.485029,-0.51013 0.612149,0 0.850207,0.31741 0.884216,0.8162 -2.221876,0.22672 -3.162772,0.87288 -3.162772,2.05183 0,0.95224 0.646157,1.70042 1.677742,1.70042 z m 0.566805,-1.29232 c -0.396763,0 -0.646157,-0.17004 -0.646157,-0.53279 0,-0.43077 0.385427,-0.77086 1.564382,-0.92956 v 0.98624 c -0.294739,0.29474 -0.544133,0.47611 -0.918225,0.47611 z m 8.649458,1.29232 c 1.768431,0 2.78868,-1.06559 2.78868,-2.28989 0,-1.04292 -0.566805,-1.64374 -1.462356,-2.00649 l -0.952233,-0.38543 c -0.634821,-0.26073 -1.122274,-0.41944 -1.122274,-0.87288 0,-0.41944 0.362755,-0.66883 0.940897,-0.66883 0.589477,0 1.042921,0.21539 1.530373,0.58948 l 0.850207,-1.05426 c -0.634821,-0.63482 -1.530373,-0.9749 -2.38058,-0.9749 -1.54171,0 -2.629976,0.9749 -2.629976,2.1992 0,1.07693 0.725511,1.71175 1.485029,2.01783 l 0.963569,0.40809 c 0.646158,0.27207 1.065593,0.41944 1.065593,0.88422 0,0.44211 -0.340083,0.71417 -1.031585,0.71417 -0.612149,0 -1.292315,-0.31741 -1.825112,-0.77085 l -0.952232,1.14495 c 0.748182,0.70283 1.768431,1.06559 2.732,1.06559 z m 5.600031,0 c 0.770855,0 1.292316,-0.35142 1.768432,-0.91822 h 0.03401 l 0.124697,0.78219 h 1.360332 v -5.62271 h -1.666406 v 3.71824 c -0.328747,0.44211 -0.578141,0.62349 -0.997577,0.62349 -0.487452,0 -0.702838,-0.26073 -0.702838,-1.0656 v -3.27613 H 53.34054 v 3.49152 c 0,1.40568 0.521461,2.26722 1.745759,2.26722 z m 4.749833,-0.13603 h 1.666407 v -3.7976 c 0.351419,-0.36275 0.680166,-0.54413 0.952232,-0.54413 0.476116,0 0.691502,0.24939 0.691502,1.06559 v 3.27614 h 1.666407 v -3.7976 c 0.362755,-0.36275 0.680166,-0.54413 0.963568,-0.54413 0.476116,0 0.691502,0.24939 0.691502,1.06559 v 3.27614 h 1.666407 v -3.49152 c 0,-1.40568 -0.544133,-2.26722 -1.757095,-2.26722 -0.748183,0 -1.269644,0.43077 -1.768432,0.94089 -0.283402,-0.60081 -0.759519,-0.94089 -1.553046,-0.94089 -0.736846,0 -1.235635,0.39676 -1.700415,0.86154 h -0.04534 l -0.113361,-0.72551 h -1.360332 z m 9.715042,0 h 1.666407 v -3.7976 c 0.351419,-0.36275 0.680166,-0.54413 0.952232,-0.54413 0.476116,0 0.691502,0.24939 0.691502,1.06559 v 3.27614 h 1.666407 v -3.7976 c 0.362755,-0.36275 0.680166,-0.54413 0.963568,-0.54413 0.476117,0 0.691502,0.24939 0.691502,1.06559 v 3.27614 h 1.666407 v -3.49152 c 0,-1.40568 -0.544133,-2.26722 -1.757095,-2.26722 -0.748183,0 -1.269643,0.43077 -1.768432,0.94089 -0.283402,-0.60081 -0.759519,-0.94089 -1.553046,-0.94089 -0.736846,0 -1.235634,0.39676 -1.700414,0.86154 h -0.04534 l -0.113361,-0.72551 h -1.360332 z m 9.715042,0 h 1.666407 v -5.62271 h -1.666407 z m 0.827536,-6.45024 c 0.555468,0 0.940896,-0.34009 0.940896,-0.87288 0,-0.52146 -0.385428,-0.87288 -0.940896,-0.87288 -0.555469,0 -0.940897,0.35142 -0.940897,0.87288 0,0.53279 0.385428,0.87288 0.940897,0.87288 z m 4.466413,6.58627 c 0.544133,0 0.952232,-0.11336 1.246971,-0.20405 l -0.26073,-1.21296 c -0.14737,0.0567 -0.351419,0.11336 -0.532797,0.11336 -0.442108,0 -0.72551,-0.26073 -0.72551,-0.89555 v -2.25589 h 1.348995 v -1.30365 h -1.348995 v -1.49636 h -1.383005 l -0.192713,1.49636 -0.861544,0.068 v 1.23563 h 0.770855 v 2.27856 c 0,1.30365 0.544133,2.17653 1.938473,2.17653 z m 4.126338,-0.13603 h 5.067237 v -1.40568 h -1.451021 c -0.340083,0 -0.838871,0.0453 -1.201627,0.0907 1.167619,-1.2243 2.301229,-2.51662 2.301229,-3.72958 0,-1.383 -0.963569,-2.28989 -2.380581,-2.28989 -1.031585,0 -1.700415,0.38543 -2.41459,1.14495 l 0.906888,0.89555 c 0.362756,-0.38543 0.759519,-0.73685 1.28098,-0.73685 0.623485,0 1.020249,0.38543 1.020249,1.08827 0,1.02025 -1.292316,2.25588 -3.128764,3.9903 z m 8.558761,0.13603 c 1.541709,0 2.573294,-1.31499 2.573294,-3.76359 0,-2.44859 -1.031585,-3.7069 -2.573294,-3.7069 -1.54171,0 -2.573295,1.25831 -2.573295,3.7069 0,2.4486 1.031585,3.76359 2.573295,3.76359 z m 0,-1.29232 c -0.555469,0 -0.997577,-0.51012 -0.997577,-2.47127 0,-1.97248 0.442108,-2.41458 0.997577,-2.41458 0.566805,0 0.997576,0.4421 0.997576,2.41458 0,1.96115 -0.430771,2.47127 -0.997576,2.47127 z m 3.412166,1.15629 h 5.06723 v -1.40568 h -1.45102 c -0.34008,0 -0.83887,0.0453 -1.20162,0.0907 1.16761,-1.2243 2.30122,-2.51662 2.30122,-3.72958 0,-1.383 -0.96356,-2.28989 -2.38058,-2.28989 -1.03158,0 -1.70041,0.38543 -2.41459,1.14495 l 0.90689,0.89555 c 0.36276,-0.38543 0.75952,-0.73685 1.28098,-0.73685 0.62349,0 1.02025,0.38543 1.02025,1.08827 0,1.02025 -1.29231,2.25588 -3.12876,3.9903 z m 8.36604,0.13603 c 1.40567,0 2.64131,-0.91822 2.64131,-2.51661 0,-1.53038 -1.05426,-2.23322 -2.28989,-2.23322 -0.29474,0 -0.5328,0.0453 -0.80487,0.17005 l 0.1247,-1.349 h 2.64131 v -1.40568 h -4.08099 l -0.20405,3.63889 0.74818,0.47612 c 0.43077,-0.27207 0.64616,-0.36276 1.06559,-0.36276 0.66883,0 1.13361,0.38543 1.13361,1.11094 0,0.73685 -0.47611,1.12227 -1.21296,1.12227 -0.61215,0 -1.12228,-0.31741 -1.55305,-0.71417 l -0.74818,1.05426 c 0.56681,0.5668 1.36033,1.00891 2.53929,1.00891 z"
           id="path23" />
        <rect
           style="vector-effect:non-scaling-stroke;fill:#ffffff;fill-opacity:1;stroke:none;stroke-width:0.0700042;-inkscape-stroke:hairline"
           id="rect27"
           width="315.43558"
           height="108.39897"
           x="285.75516"
           y="88.775505" />
        <text
           xml:space="preserve"
           style="font-style:normal;font-variant:normal;font-weight:normal;font-stretch:normal;font-size:9.87778px;line-height:1.4;font-family:'Source Sans Pro';-inkscape-font-specification:'Source Sans Pro';text-align:start;writing-mode:lr-tb;direction:ltr;text-anchor:start;white-space:pre;inline-size:383.688;display:inline;vector-effect:non-scaling-stroke;fill:#000000;fill-opacity:1;stroke:none;stroke-width:0.0700042;-inkscape-stroke:hairline"
           x="284.52536"
           y="17.006763"
           id="text23"
           transform="translate(8.3363642,87.313551)"><tspan
             x="284.52536"
             y="17.006763"
             id="tspan8">* Please do not forget to provide a mono-color design
</tspan><tspan
             x="284.52536"
             y="30.835656"
             id="tspan9">   with a dark background.
</tspan><tspan
             x="284.52536"
             y="44.664546"
             id="tspan10">* You may change the background color. 
</tspan><tspan
             x="284.52536"
             y="58.493438"
             id="tspan11">* Please convert texts to paths before submission.
</tspan><tspan
             x="284.52536"
             y="72.322329"
             id="tspan12">* You may not use any bitmap image.
</tspan><tspan
             x="284.52536"
             y="86.151225"
             id="tspan13">* Feel free to use the bottom half of this template to show other variations
</tspan><tspan
             x="284.52536"
             y="99.980113"
             id="tspan15">  with different colors, directions, ... (optional).</tspan></text>
        <text
           xml:space="preserve"
           transform="matrix(0.26458333,0,0,0.26458333,-0.16598966,0.40489188)"
           id="text27"
           style="font-style:normal;font-variant:normal;font-weight:normal;font-stretch:normal;font-size:37.3333px;line-height:1.4;font-family:'Source Code Pro';-inkscape-font-specification:'Source Code Pro';text-align:start;writing-mode:lr-tb;direction:ltr;white-space:pre;shape-inside:url(#rect28);display:inline;vector-effect:non-scaling-stroke;fill:#ffffff;fill-opacity:1;stroke:none;-inkscape-stroke:hairline" />
      </g>
    </g>
    <g
       id="g6"
       transform="translate(135.63266,-0.40489188)"
       style="fill:#ffffff">
      <path
         d="m 67.567546,12.628544 c -20.032839,0 -36.27507,16.240506 -36.27507,36.274644 0,20.034565 16.242665,36.27549 36.27507,36.27549 20.031972,0 36.274654,-16.240925 36.274654,-36.27549 0,-20.034138 -16.242682,-36.274644 -36.274654,-36.274644 z m 0.173464,5.023491 c 17.260896,0 31.265015,13.992848 31.265015,31.251153 0,17.260896 -14.005853,31.251563 -31.265015,31.251563 -9.320181,0 -17.68328,-4.084625 -23.408434,-10.555226 2.353896,-1.827445 6.292379,-1.381647 11.142847,-0.828723 2.324406,0.264522 4.974492,0.56766 7.709141,0.628369 7.641056,0.04425 15.862781,-1.349981 20.937016,-3.56771 3.28019,-1.438882 5.380835,-2.385992 6.693945,-3.581151 0.47356,-0.388121 0.72161,-1.036879 0.97487,-1.709911 l 0.17346,-0.454042 c 0.21249,-0.543811 0.51822,-1.713385 0.65482,-2.351719 0.0611,-0.27929 0.0915,-0.579805 -0.10668,-0.734627 l -0.70817,0.133581 c -2.22683,1.335246 -7.788931,3.877781 -13.000634,3.981858 -6.457605,0.13522 -19.472119,-6.500971 -20.82947,-7.201326 l -0.133564,-0.16046 c -0.325244,-0.776684 -2.273236,-5.400351 -2.685645,-6.373046 9.368318,6.169233 17.135135,9.583859 23.087961,10.114214 6.61849,0.588049 11.780762,-3.025636 13.988942,-4.569448 0.43106,-0.294025 0.75977,-0.524734 0.89507,-0.574609 l 0.14658,-0.240674 C 92.907055,49.784393 89.434325,38.527058 86.819799,35.823195 86.094723,35.081652 85.518824,34.359613 84.348381,33.672256 74.884225,28.156124 52.412059,24.833873 51.360005,24.680363 l -0.173897,0.05376 -0.06679,0.14702 c 0,0 -0.08413,4.666151 -0.09367,5.183951 -0.771044,-0.254999 -3.162236,-1.03819 -6.586833,-1.977481 4.469281,-5.529589 11.317611,-10.435561 23.302188,-10.435561 z m 8.257285,16.541037 c 0.159149,-0.0033 0.320039,-0.0049 0.480927,0 5.301471,0.190372 9.466758,4.655743 9.285488,9.953754 -0.0941,2.562907 -1.174779,4.931115 -3.046449,6.680494 -1.876873,1.758491 -4.316199,2.675246 -6.89343,2.591983 -5.292797,-0.197748 -9.458084,-4.663135 -9.286356,-9.953754 0.09064,-2.566824 1.176948,-4.95021 3.059893,-6.69395 1.757616,-1.648333 4.007435,-2.542534 6.399927,-2.578527 z m -0.254124,2.832641 c -1.544256,0.09408 -3.000915,0.721187 -4.141868,1.790584 -1.300108,1.220318 -2.067684,2.872978 -2.124059,4.663118 -0.122731,3.698243 2.771509,6.8106 6.466711,6.947639 1.795779,0.05507 3.497886,-0.573724 4.809268,-1.790567 1.307913,-1.226383 2.068983,-2.89381 2.124925,-4.676133 0.123599,-3.704323 -2.784085,-6.804978 -6.480153,-6.934641 -0.223335,-0.0082 -0.434526,-0.01311 -0.654824,0 z m 1.763687,3.35349 c 1.642264,0 2.966222,0.892465 2.966222,1.990922 0,1.093244 -1.323958,1.990921 -2.966222,1.990921 -1.647467,0 -2.979665,-0.899414 -2.979665,-1.990921 0,-1.098457 1.332198,-1.990922 2.979665,-1.990922 z"
         id="path5"
         style="fill:#ffffff;fill-opacity:1;stroke-width:0.264583" />
      <g
         id="text6"
         style="font-weight:bold;font-size:22.6722px;line-height:0.7;font-family:'Source Sans Pro';-inkscape-font-specification:'Source Sans Pro Bold';text-align:end;text-anchor:end;stroke-width:0.264583"
         inkscape:transform-center-x="-2.7051473"
         inkscape:transform-center-y="4.9594278"
         aria-label="openSUSE&#10;Asia Summit 2025">
        <path
           style="text-align:center;text-anchor:middle"
           d="m 22.676377,107.91339 c 2.834025,0 5.464,-2.15386 5.464,-5.89477 0,-3.740911 -2.629975,-5.89477 -5.464,-5.89477 -2.856697,0 -5.486673,2.153859 -5.486673,5.89477 0,3.74091 2.629976,5.89477 5.486673,5.89477 z m 0,-2.69799 c -1.383005,0 -2.063171,-1.24697 -2.063171,-3.19678 0,-1.94981 0.680166,-3.196779 2.063171,-3.196779 1.360332,0 2.06317,1.246969 2.06317,3.196779 0,1.94981 -0.702838,3.19678 -2.06317,3.19678 z m 7.753899,6.59761 h 3.332813 v -3.28747 l -0.113361,-1.7911 c 0.793527,0.74818 1.700415,1.17895 2.675319,1.17895 2.425926,0 4.73849,-2.22187 4.73849,-6.07615 0,-3.468843 -1.677743,-5.71339 -4.398407,-5.71339 -1.178954,0 -2.312564,0.589477 -3.19678,1.383004 h -0.09069 L 33.15094,96.395916 h -2.720664 z m 5.123917,-6.62028 c -0.566805,0 -1.201627,-0.18138 -1.791104,-0.72551 v -4.602457 c 0.657494,-0.702839 1.246971,-1.020249 1.927137,-1.020249 1.33766,0 1.949809,1.020249 1.949809,3.038076 0,2.31256 -0.92956,3.31014 -2.085842,3.31014 z m 12.900479,2.72066 c 1.33766,0 2.834025,-0.47611 3.990307,-1.26964 l -1.110938,-2.01783 c -0.816199,0.49879 -1.587054,0.74819 -2.425925,0.74819 -1.496365,0 -2.629975,-0.74819 -2.924714,-2.38058 h 6.733643 c 0.06802,-0.27207 0.136034,-0.88422 0.136034,-1.4737 0,-3.060744 -1.587054,-5.39598 -4.783835,-5.39598 -2.697991,0 -5.305294,2.244547 -5.305294,5.89477 0,3.71824 2.47127,5.89477 5.690722,5.89477 z m -2.493942,-7.11907 c 0.226722,-1.428346 1.13361,-2.131184 2.176531,-2.131184 1.33766,0 1.881793,0.884216 1.881793,2.131184 z m 9.204904,6.84701 h 3.332813 v -7.59519 c 0.725511,-0.702838 1.246971,-1.088265 2.085842,-1.088265 0.952233,0 1.383005,0.498788 1.383005,2.131185 v 6.55227 h 3.332813 v -6.98304 c 0,-2.811353 -1.042921,-4.53444 -3.491519,-4.53444 -1.519037,0 -2.652647,0.793527 -3.604879,1.700415 h -0.09069 l -0.226722,-1.428349 h -2.720664 z m 17.752347,0.27206 c 3.536863,0 5.577361,-2.13118 5.577361,-4.57978 0,-2.08584 -1.13361,-3.28747 -2.924713,-4.01298 l -1.904465,-0.770855 c -1.269643,-0.521461 -2.244548,-0.838871 -2.244548,-1.745759 0,-0.838872 0.725511,-1.33766 1.881793,-1.33766 1.178954,0 2.085842,0.430772 3.060747,1.178954 l 1.700415,-2.108514 c -1.269644,-1.269643 -3.060747,-1.949809 -4.761162,-1.949809 -3.083419,0 -5.25995,1.949809 -5.25995,4.398406 0,2.153859 1.45102,3.423507 2.970058,4.035647 l 1.927137,0.8162 c 1.292315,0.54414 2.131186,0.83888 2.131186,1.76844 0,0.88421 -0.680166,1.42834 -2.06317,1.42834 -1.224299,0 -2.584631,-0.63482 -3.650224,-1.54171 l -1.904465,2.2899 c 1.496366,1.40567 3.536863,2.13118 5.464,2.13118 z m 13.920724,0 c 3.808929,0 5.826755,-2.15386 5.826755,-7.11907 v -7.935267 h -3.219452 v 8.275357 c 0,2.90204 -0.952233,3.89961 -2.607303,3.89961 -1.655071,0 -2.561959,-0.99757 -2.561959,-3.89961 v -8.275357 h -3.355485 v 7.935267 c 0,4.96521 2.085842,7.11907 5.917444,7.11907 z m 13.535315,0 c 3.53686,0 5.57736,-2.13118 5.57736,-4.57978 0,-2.08584 -1.13361,-3.28747 -2.92471,-4.01298 l -1.90447,-0.770855 c -1.26964,-0.521461 -2.244544,-0.838871 -2.244544,-1.745759 0,-0.838872 0.72551,-1.33766 1.881794,-1.33766 1.17895,0 2.08584,0.430772 3.06075,1.178954 l 1.70041,-2.108514 c -1.26964,-1.269643 -3.06075,-1.949809 -4.76116,-1.949809 -3.083421,0 -5.259952,1.949809 -5.259952,4.398406 0,2.153859 1.451021,3.423507 2.970058,4.035647 l 1.927134,0.8162 c 1.29232,0.54414 2.13119,0.83888 2.13119,1.76844 0,0.88421 -0.68017,1.42834 -2.06317,1.42834 -1.224299,0 -2.584631,-0.63482 -3.650224,-1.54171 l -1.904465,2.2899 c 1.496365,1.40567 3.536863,2.13118 5.463999,2.13118 z m 8.09398,-0.27206 h 9.47698 v -2.81136 h -6.14417 v -3.40083 h 5.03323 v -2.788676 h -5.03323 v -2.970058 h 5.91744 V 92.859053 H 108.468 Z"
           id="path20" />
        <path
           style="font-size:11.3361px;text-align:center;text-anchor:middle"
           d="m 25.918506,119.77095 c 0.20405,-0.73684 0.396764,-1.59839 0.578141,-2.38058 h 0.04535 c 0.192714,0.77086 0.396763,1.64374 0.600813,2.38058 l 0.170042,0.68017 h -1.575718 z m -2.675319,3.74092 h 1.700415 l 0.453444,-1.7571 h 2.255884 l 0.453444,1.7571 h 1.768431 l -2.312564,-7.39114 h -2.00649 z m 9.114223,0.13603 c 1.507701,0 2.312564,-0.79353 2.312564,-1.81378 0,-1.03158 -0.804863,-1.42835 -1.519037,-1.68908 -0.578141,-0.21538 -1.07693,-0.35141 -1.07693,-0.71417 0,-0.2834 0.215386,-0.44211 0.646158,-0.44211 0.385427,0 0.782191,0.18138 1.178954,0.47612 l 0.748183,-0.99758 c -0.476116,-0.36275 -1.122274,-0.71417 -1.983818,-0.71417 -1.292315,0 -2.153859,0.71417 -2.153859,1.75709 0,0.92956 0.782191,1.39434 1.462357,1.65507 0.578141,0.22673 1.144946,0.39677 1.144946,0.77086 0,0.29474 -0.215385,0.47611 -0.714174,0.47611 -0.476116,0 -0.940896,-0.20405 -1.451021,-0.58947 l -0.748182,1.04292 c 0.566805,0.46478 1.417012,0.78219 2.153859,0.78219 z m 3.36683,-0.13603 h 1.666407 v -5.62271 H 35.72424 Z m 0.827536,-6.45024 c 0.555468,0 0.940896,-0.34009 0.940896,-0.87288 0,-0.52146 -0.385428,-0.87288 -0.940896,-0.87288 -0.555469,0 -0.940897,0.35142 -0.940897,0.87288 0,0.53279 0.385428,0.87288 0.940897,0.87288 z m 3.718229,6.58627 c 0.634822,0 1.156283,-0.29474 1.632399,-0.71417 h 0.04534 l 0.113361,0.57814 h 1.360332 v -3.21946 c 0,-1.72308 -0.793527,-2.53928 -2.233211,-2.53928 -0.884216,0 -1.689079,0.30607 -2.403254,0.73684 l 0.600814,1.09961 c 0.544132,-0.31742 1.008913,-0.51013 1.485029,-0.51013 0.612149,0 0.850207,0.31741 0.884216,0.8162 -2.221876,0.22672 -3.162772,0.87288 -3.162772,2.05183 0,0.95224 0.646157,1.70042 1.677742,1.70042 z m 0.566805,-1.29232 c -0.396763,0 -0.646157,-0.17004 -0.646157,-0.53279 0,-0.43077 0.385427,-0.77086 1.564382,-0.92956 v 0.98624 c -0.294739,0.29474 -0.544133,0.47611 -0.918225,0.47611 z m 8.649458,1.29232 c 1.768431,0 2.78868,-1.06559 2.78868,-2.28989 0,-1.04292 -0.566805,-1.64374 -1.462356,-2.00649 l -0.952233,-0.38543 c -0.634821,-0.26073 -1.122274,-0.41944 -1.122274,-0.87288 0,-0.41944 0.362755,-0.66883 0.940897,-0.66883 0.589477,0 1.042921,0.21539 1.530373,0.58948 l 0.850207,-1.05426 c -0.634821,-0.63482 -1.530373,-0.9749 -2.38058,-0.9749 -1.54171,0 -2.629976,0.9749 -2.629976,2.1992 0,1.07693 0.725511,1.71175 1.485029,2.01783 l 0.963569,0.40809 c 0.646158,0.27207 1.065593,0.41944 1.065593,0.88422 0,0.44211 -0.340083,0.71417 -1.031585,0.71417 -0.612149,0 -1.292315,-0.31741 -1.825112,-0.77085 l -0.952232,1.14495 c 0.748182,0.70283 1.768431,1.06559 2.732,1.06559 z m 5.600031,0 c 0.770855,0 1.292316,-0.35142 1.768432,-0.91822 h 0.03401 l 0.124697,0.78219 h 1.360332 v -5.62271 h -1.666406 v 3.71824 c -0.328747,0.44211 -0.578141,0.62349 -0.997577,0.62349 -0.487452,0 -0.702838,-0.26073 -0.702838,-1.0656 v -3.27613 H 53.34054 v 3.49152 c 0,1.40568 0.521461,2.26722 1.745759,2.26722 z m 4.749833,-0.13603 h 1.666407 v -3.7976 c 0.351419,-0.36275 0.680166,-0.54413 0.952232,-0.54413 0.476116,0 0.691502,0.24939 0.691502,1.06559 v 3.27614 h 1.666407 v -3.7976 c 0.362755,-0.36275 0.680166,-0.54413 0.963568,-0.54413 0.476116,0 0.691502,0.24939 0.691502,1.06559 v 3.27614 h 1.666407 v -3.49152 c 0,-1.40568 -0.544133,-2.26722 -1.757095,-2.26722 -0.748183,0 -1.269644,0.43077 -1.768432,0.94089 -0.283402,-0.60081 -0.759519,-0.94089 -1.553046,-0.94089 -0.736846,0 -1.235635,0.39676 -1.700415,0.86154 h -0.04534 l -0.113361,-0.72551 h -1.360332 z m 9.715042,0 h 1.666407 v -3.7976 c 0.351419,-0.36275 0.680166,-0.54413 0.952232,-0.54413 0.476116,0 0.691502,0.24939 0.691502,1.06559 v 3.27614 h 1.666407 v -3.7976 c 0.362755,-0.36275 0.680166,-0.54413 0.963568,-0.54413 0.476117,0 0.691502,0.24939 0.691502,1.06559 v 3.27614 h 1.666407 v -3.49152 c 0,-1.40568 -0.544133,-2.26722 -1.757095,-2.26722 -0.748183,0 -1.269643,0.43077 -1.768432,0.94089 -0.283402,-0.60081 -0.759519,-0.94089 -1.553046,-0.94089 -0.736846,0 -1.235634,0.39676 -1.700414,0.86154 h -0.04534 l -0.113361,-0.72551 h -1.360332 z m 9.715042,0 h 1.666407 v -5.62271 h -1.666407 z m 0.827536,-6.45024 c 0.555468,0 0.940896,-0.34009 0.940896,-0.87288 0,-0.52146 -0.385428,-0.87288 -0.940896,-0.87288 -0.555469,0 -0.940897,0.35142 -0.940897,0.87288 0,0.53279 0.385428,0.87288 0.940897,0.87288 z m 4.466413,6.58627 c 0.544133,0 0.952232,-0.11336 1.246971,-0.20405 l -0.26073,-1.21296 c -0.14737,0.0567 -0.351419,0.11336 -0.532797,0.11336 -0.442108,0 -0.72551,-0.26073 -0.72551,-0.89555 v -2.25589 h 1.348995 v -1.30365 h -1.348995 v -1.49636 h -1.383005 l -0.192713,1.49636 -0.861544,0.068 v 1.23563 h 0.770855 v 2.27856 c 0,1.30365 0.544133,2.17653 1.938473,2.17653 z m 4.126338,-0.13603 h 5.067237 v -1.40568 h -1.451021 c -0.340083,0 -0.838871,0.0453 -1.201627,0.0907 1.167619,-1.2243 2.301229,-2.51662 2.301229,-3.72958 0,-1.383 -0.963569,-2.28989 -2.380581,-2.28989 -1.031585,0 -1.700415,0.38543 -2.41459,1.14495 l 0.906888,0.89555 c 0.362756,-0.38543 0.759519,-0.73685 1.28098,-0.73685 0.623485,0 1.020249,0.38543 1.020249,1.08827 0,1.02025 -1.292316,2.25588 -3.128764,3.9903 z m 8.558761,0.13603 c 1.541709,0 2.573294,-1.31499 2.573294,-3.76359 0,-2.44859 -1.031585,-3.7069 -2.573294,-3.7069 -1.54171,0 -2.573295,1.25831 -2.573295,3.7069 0,2.4486 1.031585,3.76359 2.573295,3.76359 z m 0,-1.29232 c -0.555469,0 -0.997577,-0.51012 -0.997577,-2.47127 0,-1.97248 0.442108,-2.41458 0.997577,-2.41458 0.566805,0 0.997576,0.4421 0.997576,2.41458 0,1.96115 -0.430771,2.47127 -0.997576,2.47127 z m 3.412166,1.15629 h 5.06723 v -1.40568 h -1.45102 c -0.34008,0 -0.83887,0.0453 -1.20162,0.0907 1.16761,-1.2243 2.30122,-2.51662 2.30122,-3.72958 0,-1.383 -0.96356,-2.28989 -2.38058,-2.28989 -1.03158,0 -1.70041,0.38543 -2.41459,1.14495 l 0.90689,0.89555 c 0.36276,-0.38543 0.75952,-0.73685 1.28098,-0.73685 0.62349,0 1.02025,0.38543 1.02025,1.08827 0,1.02025 -1.29231,2.25588 -3.12876,3.9903 z m 8.36604,0.13603 c 1.40567,0 2.64131,-0.91822 2.64131,-2.51661 0,-1.53038 -1.05426,-2.23322 -2.28989,-2.23322 -0.29474,0 -0.5328,0.0453 -0.80487,0.17005 l 0.1247,-1.349 h 2.64131 v -1.40568 h -4.08099 l -0.20405,3.63889 0.74818,0.47612 c 0.43077,-0.27207 0.64616,-0.36276 1.06559,-0.36276 0.66883,0 1.13361,0.38543 1.13361,1.11094 0,0.73685 -0.47611,1.12227 -1.21296,1.12227 -0.61215,0 -1.12228,-0.31741 -1.55305,-0.71417 l -0.74818,1.05426 c 0.56681,0.5668 1.36033,1.00891 2.53929,1.00891 z"
           id="path21" />
      </g>
    </g>
    <path
       id="rect11"
       style="vector-effect:non-scaling-stroke;fill:#ffffff;stroke-width:0.264583;-inkscape-stroke:hairline"
       d="m 135.46666,203.2 h 135.46666 v 67.73333 H 135.46666 Z" />
    <path
       id="rect6"
       style="vector-effect:non-scaling-stroke;fill:#f2f2f2;stroke-width:0.264583;-inkscape-stroke:hairline"
       d="M 0,135.46667 H 135.46666 V 270.93333 H 0 Z" />
    <path
       id="rect7"
       style="vector-effect:non-scaling-stroke;fill:#73ba25;stroke-width:0.264583;-inkscape-stroke:hairline"
       d="M 135.46667,135.46667 H 270.93333 V 203.2 H 135.46667 Z" />
    <g
       id="g8"
       transform="translate(0.16598966,135.06178)"
       style="fill:#173f4f;fill-opacity:1">
      <path
         d="m 67.567546,12.628544 c -20.032839,0 -36.27507,16.240506 -36.27507,36.274644 0,20.034565 16.242665,36.27549 36.27507,36.27549 20.031972,0 36.274654,-16.240925 36.274654,-36.27549 0,-20.034138 -16.242682,-36.274644 -36.274654,-36.274644 z m 0.173464,5.023491 c 17.260896,0 31.265015,13.992848 31.265015,31.251153 0,17.260896 -14.005853,31.251563 -31.265015,31.251563 -9.320181,0 -17.68328,-4.084625 -23.408434,-10.555226 2.353896,-1.827445 6.292379,-1.381647 11.142847,-0.828723 2.324406,0.264522 4.974492,0.56766 7.709141,0.628369 7.641056,0.04425 15.862781,-1.349981 20.937016,-3.56771 3.28019,-1.438882 5.380835,-2.385992 6.693945,-3.581151 0.47356,-0.388121 0.72161,-1.036879 0.97487,-1.709911 l 0.17346,-0.454042 c 0.21249,-0.543811 0.51822,-1.713385 0.65482,-2.351719 0.0611,-0.27929 0.0915,-0.579805 -0.10668,-0.734627 l -0.70817,0.133581 c -2.22683,1.335246 -7.788931,3.877781 -13.000634,3.981858 -6.457605,0.13522 -19.472119,-6.500971 -20.82947,-7.201326 l -0.133564,-0.16046 c -0.325244,-0.776684 -2.273236,-5.400351 -2.685645,-6.373046 9.368318,6.169233 17.135135,9.583859 23.087961,10.114214 6.61849,0.588049 11.780762,-3.025636 13.988942,-4.569448 0.43106,-0.294025 0.75977,-0.524734 0.89507,-0.574609 l 0.14658,-0.240674 C 92.907055,49.784393 89.434325,38.527058 86.819799,35.823195 86.094723,35.081652 85.518824,34.359613 84.348381,33.672256 74.884225,28.156124 52.412059,24.833873 51.360005,24.680363 l -0.173897,0.05376 -0.06679,0.14702 c 0,0 -0.08413,4.666151 -0.09367,5.183951 -0.771044,-0.254999 -3.162236,-1.03819 -6.586833,-1.977481 4.469281,-5.529589 11.317611,-10.435561 23.302188,-10.435561 z m 8.257285,16.541037 c 0.159149,-0.0033 0.320039,-0.0049 0.480927,0 5.301471,0.190372 9.466758,4.655743 9.285488,9.953754 -0.0941,2.562907 -1.174779,4.931115 -3.046449,6.680494 -1.876873,1.758491 -4.316199,2.675246 -6.89343,2.591983 -5.292797,-0.197748 -9.458084,-4.663135 -9.286356,-9.953754 0.09064,-2.566824 1.176948,-4.95021 3.059893,-6.69395 1.757616,-1.648333 4.007435,-2.542534 6.399927,-2.578527 z m -0.254124,2.832641 c -1.544256,0.09408 -3.000915,0.721187 -4.141868,1.790584 -1.300108,1.220318 -2.067684,2.872978 -2.124059,4.663118 -0.122731,3.698243 2.771509,6.8106 6.466711,6.947639 1.795779,0.05507 3.497886,-0.573724 4.809268,-1.790567 1.307913,-1.226383 2.068983,-2.89381 2.124925,-4.676133 0.123599,-3.704323 -2.784085,-6.804978 -6.480153,-6.934641 -0.223335,-0.0082 -0.434526,-0.01311 -0.654824,0 z m 1.763687,3.35349 c 1.642264,0 2.966222,0.892465 2.966222,1.990922 0,1.093244 -1.323958,1.990921 -2.966222,1.990921 -1.647467,0 -2.979665,-0.899414 -2.979665,-1.990921 0,-1.098457 1.332198,-1.990922 2.979665,-1.990922 z"
         id="path7"
         style="fill:#173f4f;fill-opacity:1;stroke-width:0.264583" />
      <g
         id="text8"
         style="font-weight:bold;font-size:22.6722px;line-height:0.7;font-family:'Source Sans Pro';-inkscape-font-specification:'Source Sans Pro Bold';text-align:end;text-anchor:end;stroke-width:0.264583"
         inkscape:transform-center-x="-2.7051473"
         inkscape:transform-center-y="4.9594278"
         aria-label="openSUSE&#10;Asia Summit 2025">
        <path
           style="text-align:center;text-anchor:middle"
           d="m 22.676377,107.91339 c 2.834025,0 5.464,-2.15386 5.464,-5.89477 0,-3.740911 -2.629975,-5.89477 -5.464,-5.89477 -2.856697,0 -5.486673,2.153859 -5.486673,5.89477 0,3.74091 2.629976,5.89477 5.486673,5.89477 z m 0,-2.69799 c -1.383005,0 -2.063171,-1.24697 -2.063171,-3.19678 0,-1.94981 0.680166,-3.196779 2.063171,-3.196779 1.360332,0 2.06317,1.246969 2.06317,3.196779 0,1.94981 -0.702838,3.19678 -2.06317,3.19678 z m 7.753899,6.59761 h 3.332813 v -3.28747 l -0.113361,-1.7911 c 0.793527,0.74818 1.700415,1.17895 2.675319,1.17895 2.425926,0 4.73849,-2.22187 4.73849,-6.07615 0,-3.468843 -1.677743,-5.71339 -4.398407,-5.71339 -1.178954,0 -2.312564,0.589477 -3.19678,1.383004 h -0.09069 L 33.15094,96.395916 h -2.720664 z m 5.123917,-6.62028 c -0.566805,0 -1.201627,-0.18138 -1.791104,-0.72551 v -4.602457 c 0.657494,-0.702839 1.246971,-1.020249 1.927137,-1.020249 1.33766,0 1.949809,1.020249 1.949809,3.038076 0,2.31256 -0.92956,3.31014 -2.085842,3.31014 z m 12.900479,2.72066 c 1.33766,0 2.834025,-0.47611 3.990307,-1.26964 l -1.110938,-2.01783 c -0.816199,0.49879 -1.587054,0.74819 -2.425925,0.74819 -1.496365,0 -2.629975,-0.74819 -2.924714,-2.38058 h 6.733643 c 0.06802,-0.27207 0.136034,-0.88422 0.136034,-1.4737 0,-3.060744 -1.587054,-5.39598 -4.783835,-5.39598 -2.697991,0 -5.305294,2.244547 -5.305294,5.89477 0,3.71824 2.47127,5.89477 5.690722,5.89477 z m -2.493942,-7.11907 c 0.226722,-1.428346 1.13361,-2.131184 2.176531,-2.131184 1.33766,0 1.881793,0.884216 1.881793,2.131184 z m 9.204904,6.84701 h 3.332813 v -7.59519 c 0.725511,-0.702838 1.246971,-1.088265 2.085842,-1.088265 0.952233,0 1.383005,0.498788 1.383005,2.131185 v 6.55227 h 3.332813 v -6.98304 c 0,-2.811353 -1.042921,-4.53444 -3.491519,-4.53444 -1.519037,0 -2.652647,0.793527 -3.604879,1.700415 h -0.09069 l -0.226722,-1.428349 h -2.720664 z m 17.752347,0.27206 c 3.536863,0 5.577361,-2.13118 5.577361,-4.57978 0,-2.08584 -1.13361,-3.28747 -2.924713,-4.01298 l -1.904465,-0.770855 c -1.269643,-0.521461 -2.244548,-0.838871 -2.244548,-1.745759 0,-0.838872 0.725511,-1.33766 1.881793,-1.33766 1.178954,0 2.085842,0.430772 3.060747,1.178954 l 1.700415,-2.108514 c -1.269644,-1.269643 -3.060747,-1.949809 -4.761162,-1.949809 -3.083419,0 -5.25995,1.949809 -5.25995,4.398406 0,2.153859 1.45102,3.423507 2.970058,4.035647 l 1.927137,0.8162 c 1.292315,0.54414 2.131186,0.83888 2.131186,1.76844 0,0.88421 -0.680166,1.42834 -2.06317,1.42834 -1.224299,0 -2.584631,-0.63482 -3.650224,-1.54171 l -1.904465,2.2899 c 1.496366,1.40567 3.536863,2.13118 5.464,2.13118 z m 13.920724,0 c 3.808929,0 5.826755,-2.15386 5.826755,-7.11907 v -7.935267 h -3.219452 v 8.275357 c 0,2.90204 -0.952233,3.89961 -2.607303,3.89961 -1.655071,0 -2.561959,-0.99757 -2.561959,-3.89961 v -8.275357 h -3.355485 v 7.935267 c 0,4.96521 2.085842,7.11907 5.917444,7.11907 z m 13.535315,0 c 3.53686,0 5.57736,-2.13118 5.57736,-4.57978 0,-2.08584 -1.13361,-3.28747 -2.92471,-4.01298 l -1.90447,-0.770855 c -1.26964,-0.521461 -2.244544,-0.838871 -2.244544,-1.745759 0,-0.838872 0.72551,-1.33766 1.881794,-1.33766 1.17895,0 2.08584,0.430772 3.06075,1.178954 l 1.70041,-2.108514 c -1.26964,-1.269643 -3.06075,-1.949809 -4.76116,-1.949809 -3.083421,0 -5.259952,1.949809 -5.259952,4.398406 0,2.153859 1.451021,3.423507 2.970058,4.035647 l 1.927134,0.8162 c 1.29232,0.54414 2.13119,0.83888 2.13119,1.76844 0,0.88421 -0.68017,1.42834 -2.06317,1.42834 -1.224299,0 -2.584631,-0.63482 -3.650224,-1.54171 l -1.904465,2.2899 c 1.496365,1.40567 3.536863,2.13118 5.463999,2.13118 z m 8.09398,-0.27206 h 9.47698 v -2.81136 h -6.14417 v -3.40083 h 5.03323 v -2.788676 h -5.03323 v -2.970058 h 5.91744 V 92.859053 H 108.468 Z"
           id="path18" />
        <path
           style="font-size:11.3361px;text-align:center;text-anchor:middle"
           d="m 25.918506,119.77095 c 0.20405,-0.73684 0.396764,-1.59839 0.578141,-2.38058 h 0.04535 c 0.192714,0.77086 0.396763,1.64374 0.600813,2.38058 l 0.170042,0.68017 h -1.575718 z m -2.675319,3.74092 h 1.700415 l 0.453444,-1.7571 h 2.255884 l 0.453444,1.7571 h 1.768431 l -2.312564,-7.39114 h -2.00649 z m 9.114223,0.13603 c 1.507701,0 2.312564,-0.79353 2.312564,-1.81378 0,-1.03158 -0.804863,-1.42835 -1.519037,-1.68908 -0.578141,-0.21538 -1.07693,-0.35141 -1.07693,-0.71417 0,-0.2834 0.215386,-0.44211 0.646158,-0.44211 0.385427,0 0.782191,0.18138 1.178954,0.47612 l 0.748183,-0.99758 c -0.476116,-0.36275 -1.122274,-0.71417 -1.983818,-0.71417 -1.292315,0 -2.153859,0.71417 -2.153859,1.75709 0,0.92956 0.782191,1.39434 1.462357,1.65507 0.578141,0.22673 1.144946,0.39677 1.144946,0.77086 0,0.29474 -0.215385,0.47611 -0.714174,0.47611 -0.476116,0 -0.940896,-0.20405 -1.451021,-0.58947 l -0.748182,1.04292 c 0.566805,0.46478 1.417012,0.78219 2.153859,0.78219 z m 3.36683,-0.13603 h 1.666407 v -5.62271 H 35.72424 Z m 0.827536,-6.45024 c 0.555468,0 0.940896,-0.34009 0.940896,-0.87288 0,-0.52146 -0.385428,-0.87288 -0.940896,-0.87288 -0.555469,0 -0.940897,0.35142 -0.940897,0.87288 0,0.53279 0.385428,0.87288 0.940897,0.87288 z m 3.718229,6.58627 c 0.634822,0 1.156283,-0.29474 1.632399,-0.71417 h 0.04534 l 0.113361,0.57814 h 1.360332 v -3.21946 c 0,-1.72308 -0.793527,-2.53928 -2.233211,-2.53928 -0.884216,0 -1.689079,0.30607 -2.403254,0.73684 l 0.600814,1.09961 c 0.544132,-0.31742 1.008913,-0.51013 1.485029,-0.51013 0.612149,0 0.850207,0.31741 0.884216,0.8162 -2.221876,0.22672 -3.162772,0.87288 -3.162772,2.05183 0,0.95224 0.646157,1.70042 1.677742,1.70042 z m 0.566805,-1.29232 c -0.396763,0 -0.646157,-0.17004 -0.646157,-0.53279 0,-0.43077 0.385427,-0.77086 1.564382,-0.92956 v 0.98624 c -0.294739,0.29474 -0.544133,0.47611 -0.918225,0.47611 z m 8.649458,1.29232 c 1.768431,0 2.78868,-1.06559 2.78868,-2.28989 0,-1.04292 -0.566805,-1.64374 -1.462356,-2.00649 l -0.952233,-0.38543 c -0.634821,-0.26073 -1.122274,-0.41944 -1.122274,-0.87288 0,-0.41944 0.362755,-0.66883 0.940897,-0.66883 0.589477,0 1.042921,0.21539 1.530373,0.58948 l 0.850207,-1.05426 c -0.634821,-0.63482 -1.530373,-0.9749 -2.38058,-0.9749 -1.54171,0 -2.629976,0.9749 -2.629976,2.1992 0,1.07693 0.725511,1.71175 1.485029,2.01783 l 0.963569,0.40809 c 0.646158,0.27207 1.065593,0.41944 1.065593,0.88422 0,0.44211 -0.340083,0.71417 -1.031585,0.71417 -0.612149,0 -1.292315,-0.31741 -1.825112,-0.77085 l -0.952232,1.14495 c 0.748182,0.70283 1.768431,1.06559 2.732,1.06559 z m 5.600031,0 c 0.770855,0 1.292316,-0.35142 1.768432,-0.91822 h 0.03401 l 0.124697,0.78219 h 1.360332 v -5.62271 h -1.666406 v 3.71824 c -0.328747,0.44211 -0.578141,0.62349 -0.997577,0.62349 -0.487452,0 -0.702838,-0.26073 -0.702838,-1.0656 v -3.27613 H 53.34054 v 3.49152 c 0,1.40568 0.521461,2.26722 1.745759,2.26722 z m 4.749833,-0.13603 h 1.666407 v -3.7976 c 0.351419,-0.36275 0.680166,-0.54413 0.952232,-0.54413 0.476116,0 0.691502,0.24939 0.691502,1.06559 v 3.27614 h 1.666407 v -3.7976 c 0.362755,-0.36275 0.680166,-0.54413 0.963568,-0.54413 0.476116,0 0.691502,0.24939 0.691502,1.06559 v 3.27614 h 1.666407 v -3.49152 c 0,-1.40568 -0.544133,-2.26722 -1.757095,-2.26722 -0.748183,0 -1.269644,0.43077 -1.768432,0.94089 -0.283402,-0.60081 -0.759519,-0.94089 -1.553046,-0.94089 -0.736846,0 -1.235635,0.39676 -1.700415,0.86154 h -0.04534 l -0.113361,-0.72551 h -1.360332 z m 9.715042,0 h 1.666407 v -3.7976 c 0.351419,-0.36275 0.680166,-0.54413 0.952232,-0.54413 0.476116,0 0.691502,0.24939 0.691502,1.06559 v 3.27614 h 1.666407 v -3.7976 c 0.362755,-0.36275 0.680166,-0.54413 0.963568,-0.54413 0.476117,0 0.691502,0.24939 0.691502,1.06559 v 3.27614 h 1.666407 v -3.49152 c 0,-1.40568 -0.544133,-2.26722 -1.757095,-2.26722 -0.748183,0 -1.269643,0.43077 -1.768432,0.94089 -0.283402,-0.60081 -0.759519,-0.94089 -1.553046,-0.94089 -0.736846,0 -1.235634,0.39676 -1.700414,0.86154 h -0.04534 l -0.113361,-0.72551 h -1.360332 z m 9.715042,0 h 1.666407 v -5.62271 h -1.666407 z m 0.827536,-6.45024 c 0.555468,0 0.940896,-0.34009 0.940896,-0.87288 0,-0.52146 -0.385428,-0.87288 -0.940896,-0.87288 -0.555469,0 -0.940897,0.35142 -0.940897,0.87288 0,0.53279 0.385428,0.87288 0.940897,0.87288 z m 4.466413,6.58627 c 0.544133,0 0.952232,-0.11336 1.246971,-0.20405 l -0.26073,-1.21296 c -0.14737,0.0567 -0.351419,0.11336 -0.532797,0.11336 -0.442108,0 -0.72551,-0.26073 -0.72551,-0.89555 v -2.25589 h 1.348995 v -1.30365 h -1.348995 v -1.49636 h -1.383005 l -0.192713,1.49636 -0.861544,0.068 v 1.23563 h 0.770855 v 2.27856 c 0,1.30365 0.544133,2.17653 1.938473,2.17653 z m 4.126338,-0.13603 h 5.067237 v -1.40568 h -1.451021 c -0.340083,0 -0.838871,0.0453 -1.201627,0.0907 1.167619,-1.2243 2.301229,-2.51662 2.301229,-3.72958 0,-1.383 -0.963569,-2.28989 -2.380581,-2.28989 -1.031585,0 -1.700415,0.38543 -2.41459,1.14495 l 0.906888,0.89555 c 0.362756,-0.38543 0.759519,-0.73685 1.28098,-0.73685 0.623485,0 1.020249,0.38543 1.020249,1.08827 0,1.02025 -1.292316,2.25588 -3.128764,3.9903 z m 8.558761,0.13603 c 1.541709,0 2.573294,-1.31499 2.573294,-3.76359 0,-2.44859 -1.031585,-3.7069 -2.573294,-3.7069 -1.54171,0 -2.573295,1.25831 -2.573295,3.7069 0,2.4486 1.031585,3.76359 2.573295,3.76359 z m 0,-1.29232 c -0.555469,0 -0.997577,-0.51012 -0.997577,-2.47127 0,-1.97248 0.442108,-2.41458 0.997577,-2.41458 0.566805,0 0.997576,0.4421 0.997576,2.41458 0,1.96115 -0.430771,2.47127 -0.997576,2.47127 z m 3.412166,1.15629 h 5.06723 v -1.40568 h -1.45102 c -0.34008,0 -0.83887,0.0453 -1.20162,0.0907 1.16761,-1.2243 2.30122,-2.51662 2.30122,-3.72958 0,-1.383 -0.96356,-2.28989 -2.38058,-2.28989 -1.03158,0 -1.70041,0.38543 -2.41459,1.14495 l 0.90689,0.89555 c 0.36276,-0.38543 0.75952,-0.73685 1.28098,-0.73685 0.62349,0 1.02025,0.38543 1.02025,1.08827 0,1.02025 -1.29231,2.25588 -3.12876,3.9903 z m 8.36604,0.13603 c 1.40567,0 2.64131,-0.91822 2.64131,-2.51661 0,-1.53038 -1.05426,-2.23322 -2.28989,-2.23322 -0.29474,0 -0.5328,0.0453 -0.80487,0.17005 l 0.1247,-1.349 h 2.64131 v -1.40568 h -4.08099 l -0.20405,3.63889 0.74818,0.47612 c 0.43077,-0.27207 0.64616,-0.36276 1.06559,-0.36276 0.66883,0 1.13361,0.38543 1.13361,1.11094 0,0.73685 -0.47611,1.12227 -1.21296,1.12227 -0.61215,0 -1.12228,-0.31741 -1.55305,-0.71417 l -0.74818,1.05426 c 0.56681,0.5668 1.36033,1.00891 2.53929,1.00891 z"
           id="path19" />
      </g>
    </g>
    <g
       id="g11"
       transform="translate(1.512032,1.9931768)">
      <path
         d="m 163.05895,216.47709 c -10.26983,0 -18.5964,8.32569 -18.5964,18.59618 0,10.27071 8.32679,18.59661 18.5964,18.59661 10.26937,0 18.59618,-8.3259 18.59618,-18.59661 0,-10.27049 -8.32681,-18.59618 -18.59618,-18.59618 z m 0.0889,2.57529 c 8.84879,0 16.02799,7.17343 16.02799,16.02089 0,8.84879 -7.18009,16.0211 -16.02799,16.0211 -4.77799,0 -9.06532,-2.09398 -12.00032,-5.41114 1.20673,-0.93683 3.22578,-0.70829 5.71238,-0.42484 1.1916,0.13561 2.55017,0.29101 3.95208,0.32213 3.91718,0.0227 8.13205,-0.69206 10.73335,-1.82898 1.68159,-0.73764 2.75848,-1.22318 3.43165,-1.83588 0.24277,-0.19896 0.36993,-0.53155 0.49976,-0.87658 l 0.0889,-0.23276 c 0.10893,-0.27879 0.26566,-0.87837 0.33569,-1.20561 0.0313,-0.14318 0.0469,-0.29724 -0.0547,-0.37661 l -0.36305,0.0685 c -1.14158,0.68452 -3.99299,1.98795 -6.66476,2.0413 -3.31049,0.0693 -9.98238,-3.33272 -10.67822,-3.69176 l -0.0684,-0.0823 c -0.16674,-0.39816 -1.16538,-2.76849 -1.37681,-3.26713 4.80267,3.16265 8.78432,4.91316 11.83603,5.18504 3.39297,0.30146 6.03941,-1.55108 7.17143,-2.34252 0.22098,-0.15074 0.3895,-0.26901 0.45886,-0.29458 l 0.0752,-0.12337 c -0.18763,-1.19228 -1.96792,-6.96335 -3.30826,-8.34948 -0.37171,-0.38015 -0.66694,-0.75031 -1.26697,-1.10268 -4.85179,-2.82784 -16.37214,-4.53099 -16.91148,-4.60969 l -0.0891,0.0276 -0.0343,0.0753 c 0,0 -0.0431,2.39211 -0.0481,2.65756 -0.39528,-0.13073 -1.62112,-0.53223 -3.37674,-1.01376 2.29117,-2.83474 5.80197,-5.34978 11.94585,-5.34978 z m 4.23309,8.47975 c 0.0816,-0.002 0.16407,-0.002 0.24655,0 2.7178,0.0976 4.85313,2.38677 4.7602,5.1028 -0.0482,1.31387 -0.60225,2.52792 -1.56176,3.42474 -0.96218,0.90149 -2.21269,1.37147 -3.53391,1.32878 -2.71336,-0.10137 -4.84869,-2.39055 -4.76065,-5.10278 0.0464,-1.31589 0.60336,-2.53772 1.56866,-3.43165 0.90103,-0.84502 2.0544,-1.30344 3.28091,-1.32189 z m -0.13027,1.45215 c -0.79167,0.0482 -1.53842,0.36973 -2.12333,0.91795 -0.6665,0.62559 -1.06,1.47283 -1.0889,2.39055 -0.0629,1.8959 1.42081,3.49144 3.31516,3.5617 0.9206,0.0283 1.79319,-0.29412 2.46547,-0.91793 0.6705,-0.62871 1.06067,-1.48351 1.08934,-2.39723 0.0633,-1.89901 -1.42726,-3.48856 -3.32205,-3.55504 -0.11449,-0.004 -0.22276,-0.007 -0.33569,0 z m 0.90416,1.71917 c 0.8419,0 1.52063,0.45753 1.52063,1.02064 0,0.56046 -0.67873,1.02066 -1.52063,1.02066 -0.84458,0 -1.52754,-0.46109 -1.52754,-1.02066 0,-0.56311 0.68296,-1.02064 1.52754,-1.02064 z"
         id="path10"
         style="fill:#73ba25;fill-opacity:1;stroke-width:0.264583" />
      <g
         id="text11"
         style="font-weight:bold;font-size:16.5254px;line-height:0.7;font-family:'Source Sans Pro';-inkscape-font-specification:'Source Sans Pro Bold';text-align:end;text-anchor:end;fill:#173f4f;stroke-width:0.264583"
         inkscape:transform-center-x="-1.9718344"
         inkscape:transform-center-y="3.6148355"
         aria-label="openSUSE&#10;Asia Summit 2025">
        <path
           style="text-align:start;text-anchor:start"
           d="m 189.47362,242.20122 c 2.06568,0 3.98263,-1.56991 3.98263,-4.2966 0,-2.7267 -1.91695,-4.29661 -3.98263,-4.29661 -2.0822,0 -3.99914,1.56991 -3.99914,4.29661 0,2.72669 1.91694,4.2966 3.99914,4.2966 z m 0,-1.96652 c -1.00805,0 -1.50381,-0.9089 -1.50381,-2.33008 0,-1.42119 0.49576,-2.33009 1.50381,-2.33009 0.99153,0 1.50382,0.9089 1.50382,2.33009 0,1.42118 -0.51229,2.33008 -1.50382,2.33008 z m 5.6517,4.80889 h 2.42923 v -2.39618 l -0.0826,-1.30551 c 0.57839,0.54534 1.23941,0.85932 1.95,0.85932 1.76822,0 3.45381,-1.61949 3.45381,-4.42881 0,-2.52838 -1.22288,-4.1644 -3.20593,-4.1644 -0.85932,0 -1.68559,0.42966 -2.33008,1.00805 h -0.0661 l -0.16526,-0.80974 h -1.98304 z m 3.73474,-4.82542 c -0.41314,0 -0.87585,-0.1322 -1.30551,-0.52881 v -3.35466 c 0.47924,-0.51229 0.9089,-0.74364 1.40466,-0.74364 0.975,0 1.42118,0.74364 1.42118,2.2144 0,1.68559 -0.67754,2.41271 -1.52033,2.41271 z m 9.40295,1.98305 c 0.975,0 2.06567,-0.34703 2.90847,-0.92542 l -0.80975,-1.47076 c -0.59491,0.36356 -1.15677,0.54533 -1.76821,0.54533 -1.09068,0 -1.91695,-0.54533 -2.13178,-1.73516 h 4.90804 c 0.0496,-0.19831 0.0992,-0.64449 0.0992,-1.07415 0,-2.23093 -1.15678,-3.93305 -3.48686,-3.93305 -1.96653,0 -3.86695,1.63602 -3.86695,4.29661 0,2.71016 1.80127,4.2966 4.14788,4.2966 z m -1.8178,-5.18898 c 0.16526,-1.0411 0.82627,-1.55338 1.58644,-1.55338 0.975,0 1.37161,0.64449 1.37161,1.55338 z m 6.70931,4.99067 h 2.42923 v -5.536 c 0.52882,-0.51229 0.9089,-0.79322 1.52034,-0.79322 0.69407,0 1.00805,0.36355 1.00805,1.55338 v 4.77584 h 2.42923 v -5.08982 c 0,-2.04915 -0.76017,-3.30508 -2.54491,-3.30508 -1.1072,0 -1.93347,0.57839 -2.62754,1.23941 h -0.0661 l -0.16525,-1.0411 h -1.98305 z m 12.9394,0.19831 c 2.57796,0 4.06524,-1.55339 4.06524,-3.33813 0,-1.52034 -0.82627,-2.39618 -2.13177,-2.925 l -1.38814,-0.56186 c -0.92542,-0.38009 -1.63601,-0.61144 -1.63601,-1.27246 0,-0.61144 0.52881,-0.975 1.37161,-0.975 0.85932,0 1.52033,0.31399 2.23093,0.85933 l 1.2394,-1.53687 c -0.92542,-0.92542 -2.23093,-1.42118 -3.47033,-1.42118 -2.24746,0 -3.8339,1.42118 -3.8339,3.20593 0,1.56991 1.05763,2.49533 2.16483,2.94152 l 1.40466,0.59491 c 0.94195,0.39661 1.55339,0.61144 1.55339,1.28898 0,0.64449 -0.49576,1.0411 -1.50381,1.0411 -0.89237,0 -1.8839,-0.46271 -2.66059,-1.12372 l -1.38814,1.66906 c 1.09068,1.02458 2.57797,1.55339 3.98263,1.55339 z m 10.14659,0 c 2.77626,0 4.24703,-1.56991 4.24703,-5.18898 v -5.78389 h -2.34661 v 6.03177 c 0,2.11526 -0.69407,2.84237 -1.90042,2.84237 -1.20636,0 -1.86737,-0.72711 -1.86737,-2.84237 v -6.03177 h -2.44576 v 5.78389 c 0,3.61907 1.52033,5.18898 4.31313,5.18898 z m 9.86567,0 c 2.57797,0 4.06525,-1.55339 4.06525,-3.33813 0,-1.52034 -0.82627,-2.39618 -2.13177,-2.925 l -1.38814,-0.56186 c -0.92542,-0.38009 -1.63601,-0.61144 -1.63601,-1.27246 0,-0.61144 0.52881,-0.975 1.37161,-0.975 0.85932,0 1.52033,0.31399 2.23092,0.85933 l 1.23941,-1.53687 c -0.92542,-0.92542 -2.23093,-1.42118 -3.47033,-1.42118 -2.24746,0 -3.8339,1.42118 -3.8339,3.20593 0,1.56991 1.05763,2.49533 2.16483,2.94152 l 1.40466,0.59491 c 0.94195,0.39661 1.55339,0.61144 1.55339,1.28898 0,0.64449 -0.49576,1.0411 -1.50381,1.0411 -0.89238,0 -1.8839,-0.46271 -2.66059,-1.12372 l -1.38814,1.66906 c 1.09068,1.02458 2.57797,1.55339 3.98262,1.55339 z m 5.89957,-0.19831 h 6.90761 v -2.04915 h -4.47838 v -2.47881 h 3.66864 v -2.03262 h -3.66864 v -2.16483 h 4.31313 v -2.04915 h -6.74236 z"
           id="path16" />
        <path
           style="font-size:8.2627px;text-align:start;text-anchor:start"
           d="m 186.77998,250.844 c 0.14873,-0.53707 0.2892,-1.16504 0.4214,-1.73516 h 0.0331 c 0.14047,0.56186 0.2892,1.19809 0.43793,1.73516 l 0.12394,0.49577 h -1.14852 z m -1.94999,2.72669 h 1.2394 l 0.33051,-1.28071 h 1.64428 l 0.3305,1.28071 h 1.28899 l -1.6856,-5.38728 h -1.46249 z m 6.64321,0.0992 c 1.09894,0 1.68559,-0.57839 1.68559,-1.32204 0,-0.7519 -0.58665,-1.0411 -1.1072,-1.23114 -0.4214,-0.15699 -0.78496,-0.25614 -0.78496,-0.52055 0,-0.20657 0.15699,-0.32224 0.47097,-0.32224 0.28093,0 0.57013,0.1322 0.85932,0.34703 l 0.54534,-0.72712 c -0.34703,-0.2644 -0.81801,-0.52055 -1.44597,-0.52055 -0.94195,0 -1.56991,0.52055 -1.56991,1.28072 0,0.67754 0.57012,1.01631 1.06588,1.20636 0.4214,0.16525 0.83454,0.28919 0.83454,0.56186 0,0.21483 -0.15699,0.34703 -0.52055,0.34703 -0.34704,0 -0.68581,-0.14873 -1.05763,-0.42966 l -0.54534,0.76017 c 0.41314,0.33877 1.03284,0.57013 1.56992,0.57013 z m 2.45402,-0.0992 h 1.21462 v -4.09829 h -1.21462 z m 0.60318,-4.70147 c 0.40487,0 0.68581,-0.24788 0.68581,-0.63623 0,-0.38008 -0.28094,-0.63623 -0.68581,-0.63623 -0.40487,0 -0.6858,0.25615 -0.6858,0.63623 0,0.38835 0.28093,0.63623 0.6858,0.63623 z m 2.71016,4.80063 c 0.46271,0 0.8428,-0.21483 1.18983,-0.52055 h 0.0331 l 0.0826,0.42139 h 0.99152 v -2.3466 c 0,-1.25593 -0.57839,-1.85085 -1.62775,-1.85085 -0.64449,0 -1.23114,0.2231 -1.75169,0.53708 l 0.43792,0.80148 c 0.39661,-0.23136 0.73538,-0.37182 1.08241,-0.37182 0.44619,0 0.61971,0.23135 0.64449,0.59491 -1.61949,0.16526 -2.30529,0.63623 -2.30529,1.49555 0,0.69407 0.47097,1.23941 1.22288,1.23941 z m 0.41313,-0.94195 c -0.28919,0 -0.47097,-0.12394 -0.47097,-0.38835 0,-0.31398 0.28093,-0.56186 1.14025,-0.67754 v 0.71886 c -0.21483,0.21483 -0.39661,0.34703 -0.66928,0.34703 z m 6.30445,0.94195 c 1.28899,0 2.03263,-0.7767 2.03263,-1.66907 0,-0.76017 -0.41314,-1.19809 -1.06589,-1.4625 l -0.69407,-0.28093 c -0.46271,-0.19004 -0.818,-0.30572 -0.818,-0.63623 0,-0.30572 0.2644,-0.4875 0.6858,-0.4875 0.42966,0 0.76017,0.157 1.11546,0.42966 l 0.61971,-0.76843 c -0.46271,-0.46271 -1.11547,-0.71059 -1.73517,-0.71059 -1.12373,0 -1.91695,0.71059 -1.91695,1.60297 0,0.78495 0.52882,1.24766 1.08242,1.47076 l 0.70233,0.29745 c 0.47097,0.19831 0.77669,0.30572 0.77669,0.64449 0,0.32225 -0.24788,0.52055 -0.7519,0.52055 -0.44619,0 -0.94195,-0.23135 -1.3303,-0.56186 l -0.69407,0.83453 c 0.54534,0.51229 1.28898,0.7767 1.99131,0.7767 z m 4.08178,0 c 0.56186,0 0.94194,-0.25615 1.28898,-0.66928 h 0.0248 l 0.0909,0.57012 h 0.99153 v -4.09829 h -1.21462 v 2.71016 c -0.23962,0.32225 -0.4214,0.45445 -0.72712,0.45445 -0.35529,0 -0.51228,-0.19004 -0.51228,-0.77669 v -2.38792 h -1.21462 v 2.54491 c 0,1.02457 0.38008,1.65254 1.27246,1.65254 z m 3.46207,-0.0992 h 1.21462 v -2.768 c 0.25614,-0.26441 0.49576,-0.39661 0.69407,-0.39661 0.34703,0 0.50402,0.18178 0.50402,0.77669 v 2.38792 h 1.21462 v -2.768 c 0.26441,-0.26441 0.49576,-0.39661 0.70233,-0.39661 0.34703,0 0.50402,0.18178 0.50402,0.77669 v 2.38792 h 1.21462 v -2.54491 c 0,-1.02457 -0.39661,-1.65254 -1.28072,-1.65254 -0.54534,0 -0.92542,0.31399 -1.28898,0.68581 -0.20657,-0.43793 -0.5536,-0.68581 -1.13199,-0.68581 -0.53708,0 -0.90063,0.2892 -1.2394,0.62797 h -0.0331 l -0.0826,-0.52881 h -0.99153 z m 7.08114,0 h 1.21462 v -2.768 c 0.25614,-0.26441 0.49576,-0.39661 0.69406,-0.39661 0.34704,0 0.50403,0.18178 0.50403,0.77669 v 2.38792 h 1.21462 v -2.768 c 0.2644,-0.26441 0.49576,-0.39661 0.70233,-0.39661 0.34703,0 0.50402,0.18178 0.50402,0.77669 v 2.38792 h 1.21462 v -2.54491 c 0,-1.02457 -0.39661,-1.65254 -1.28072,-1.65254 -0.54534,0 -0.92542,0.31399 -1.28898,0.68581 -0.20657,-0.43793 -0.5536,-0.68581 -1.13199,-0.68581 -0.53708,0 -0.90064,0.2892 -1.23941,0.62797 h -0.0331 l -0.0826,-0.52881 h -0.99152 z m 7.08114,0 h 1.21462 v -4.09829 h -1.21462 z m 0.60318,-4.70147 c 0.40487,0 0.6858,-0.24788 0.6858,-0.63623 0,-0.38008 -0.28093,-0.63623 -0.6858,-0.63623 -0.40488,0 -0.68581,0.25615 -0.68581,0.63623 0,0.38835 0.28093,0.63623 0.68581,0.63623 z m 3.25549,4.80063 c 0.39661,0 0.69407,-0.0826 0.9089,-0.14873 l -0.19005,-0.88411 c -0.10741,0.0413 -0.25614,0.0826 -0.38834,0.0826 -0.32225,0 -0.52882,-0.19005 -0.52882,-0.65276 v -1.64427 h 0.98327 v -0.95021 h -0.98327 v -1.09068 h -1.00804 l -0.14047,1.09068 -0.62797,0.0496 v 0.90064 h 0.56187 v 1.6608 c 0,0.95021 0.39661,1.58644 1.41292,1.58644 z m 3.00763,-0.0992 h 3.69342 v -1.02457 h -1.05762 c -0.24788,0 -0.61144,0.0331 -0.87585,0.0661 0.85106,-0.89237 1.67733,-1.83432 1.67733,-2.71843 0,-1.00805 -0.70233,-1.66906 -1.73517,-1.66906 -0.7519,0 -1.2394,0.28093 -1.75995,0.83453 l 0.66101,0.65275 c 0.26441,-0.28093 0.5536,-0.53707 0.93369,-0.53707 0.45445,0 0.74364,0.28093 0.74364,0.79322 0,0.74364 -0.94195,1.64427 -2.2805,2.90847 z m 6.23833,0.0992 c 1.12373,0 1.87564,-0.95848 1.87564,-2.74322 0,-1.78474 -0.75191,-2.7019 -1.87564,-2.7019 -1.12372,0 -1.87563,0.91716 -1.87563,2.7019 0,1.78474 0.75191,2.74322 1.87563,2.74322 z m 0,-0.94195 c -0.40487,0 -0.72711,-0.37182 -0.72711,-1.80127 0,-1.43771 0.32224,-1.75995 0.72711,-1.75995 0.41314,0 0.72712,0.32224 0.72712,1.75995 0,1.42945 -0.31398,1.80127 -0.72712,1.80127 z m 2.48708,0.84279 h 3.69342 v -1.02457 h -1.05762 c -0.24788,0 -0.61144,0.0331 -0.87585,0.0661 0.85106,-0.89237 1.67733,-1.83432 1.67733,-2.71843 0,-1.00805 -0.70233,-1.66906 -1.73517,-1.66906 -0.7519,0 -1.2394,0.28093 -1.75995,0.83453 l 0.66101,0.65275 c 0.26441,-0.28093 0.5536,-0.53707 0.93369,-0.53707 0.45445,0 0.74364,0.28093 0.74364,0.79322 0,0.74364 -0.94195,1.64427 -2.2805,2.90847 z m 6.09786,0.0992 c 1.02458,0 1.92521,-0.66928 1.92521,-1.83432 0,-1.11547 -0.76843,-1.62775 -1.66906,-1.62775 -0.21483,0 -0.38835,0.033 -0.58665,0.12394 l 0.0909,-0.98327 h 1.92521 v -1.02457 h -2.97458 l -0.14873,2.65233 0.54534,0.34703 c 0.31399,-0.1983 0.47098,-0.26441 0.7767,-0.26441 0.4875,0 0.82627,0.28094 0.82627,0.80975 0,0.53707 -0.34704,0.81801 -0.88411,0.81801 -0.44619,0 -0.81801,-0.23136 -1.13199,-0.52055 l -0.54534,0.76843 c 0.41313,0.41313 0.99152,0.73538 1.85084,0.73538 z"
           id="path17" />
      </g>
    </g>
    <g
       id="g13"
       transform="translate(1.5120472,-65.740145)"
       style="fill:#ffffff">
      <path
         d="m 163.05895,216.47709 c -10.26983,0 -18.5964,8.32569 -18.5964,18.59618 0,10.27071 8.32679,18.59661 18.5964,18.59661 10.26937,0 18.59618,-8.3259 18.59618,-18.59661 0,-10.27049 -8.32681,-18.59618 -18.59618,-18.59618 z m 0.0889,2.57529 c 8.84879,0 16.02799,7.17343 16.02799,16.02089 0,8.84879 -7.18009,16.0211 -16.02799,16.0211 -4.77799,0 -9.06532,-2.09398 -12.00032,-5.41114 1.20673,-0.93683 3.22578,-0.70829 5.71238,-0.42484 1.1916,0.13561 2.55017,0.29101 3.95208,0.32213 3.91718,0.0227 8.13205,-0.69206 10.73335,-1.82898 1.68159,-0.73764 2.75848,-1.22318 3.43165,-1.83588 0.24277,-0.19896 0.36993,-0.53155 0.49976,-0.87658 l 0.0889,-0.23276 c 0.10893,-0.27879 0.26566,-0.87837 0.33569,-1.20561 0.0313,-0.14318 0.0469,-0.29724 -0.0547,-0.37661 l -0.36305,0.0685 c -1.14158,0.68452 -3.99299,1.98795 -6.66476,2.0413 -3.31049,0.0693 -9.98238,-3.33272 -10.67822,-3.69176 l -0.0684,-0.0823 c -0.16674,-0.39816 -1.16538,-2.76849 -1.37681,-3.26713 4.80267,3.16265 8.78432,4.91316 11.83603,5.18504 3.39297,0.30146 6.03941,-1.55108 7.17143,-2.34252 0.22098,-0.15074 0.3895,-0.26901 0.45886,-0.29458 l 0.0752,-0.12337 c -0.18763,-1.19228 -1.96792,-6.96335 -3.30826,-8.34948 -0.37171,-0.38015 -0.66694,-0.75031 -1.26697,-1.10268 -4.85179,-2.82784 -16.37214,-4.53099 -16.91148,-4.60969 l -0.0891,0.0276 -0.0343,0.0753 c 0,0 -0.0431,2.39211 -0.0481,2.65756 -0.39528,-0.13073 -1.62112,-0.53223 -3.37674,-1.01376 2.29117,-2.83474 5.80197,-5.34978 11.94585,-5.34978 z m 4.23309,8.47975 c 0.0816,-0.002 0.16407,-0.002 0.24655,0 2.7178,0.0976 4.85313,2.38677 4.7602,5.1028 -0.0482,1.31387 -0.60225,2.52792 -1.56176,3.42474 -0.96218,0.90149 -2.21269,1.37147 -3.53391,1.32878 -2.71336,-0.10137 -4.84869,-2.39055 -4.76065,-5.10278 0.0464,-1.31589 0.60336,-2.53772 1.56866,-3.43165 0.90103,-0.84502 2.0544,-1.30344 3.28091,-1.32189 z m -0.13027,1.45215 c -0.79167,0.0482 -1.53842,0.36973 -2.12333,0.91795 -0.6665,0.62559 -1.06,1.47283 -1.0889,2.39055 -0.0629,1.8959 1.42081,3.49144 3.31516,3.5617 0.9206,0.0283 1.79319,-0.29412 2.46547,-0.91793 0.6705,-0.62871 1.06067,-1.48351 1.08934,-2.39723 0.0633,-1.89901 -1.42726,-3.48856 -3.32205,-3.55504 -0.11449,-0.004 -0.22276,-0.007 -0.33569,0 z m 0.90416,1.71917 c 0.8419,0 1.52063,0.45753 1.52063,1.02064 0,0.56046 -0.67873,1.02066 -1.52063,1.02066 -0.84458,0 -1.52754,-0.46109 -1.52754,-1.02066 0,-0.56311 0.68296,-1.02064 1.52754,-1.02064 z"
         id="path11"
         style="fill:#ffffff;fill-opacity:1;stroke-width:0.264583" />
      <g
         id="text13"
         style="font-weight:bold;font-size:16.5254px;line-height:0.7;font-family:'Source Sans Pro';-inkscape-font-specification:'Source Sans Pro Bold';text-align:end;text-anchor:end;stroke-width:0.264583"
         inkscape:transform-center-x="-1.9718344"
         inkscape:transform-center-y="3.6148355"
         aria-label="openSUSE&#10;Asia Summit 2025">
        <path
           style="text-align:start;text-anchor:start"
           d="m 189.47362,242.20122 c 2.06568,0 3.98263,-1.56991 3.98263,-4.2966 0,-2.7267 -1.91695,-4.29661 -3.98263,-4.29661 -2.0822,0 -3.99914,1.56991 -3.99914,4.29661 0,2.72669 1.91694,4.2966 3.99914,4.2966 z m 0,-1.96652 c -1.00805,0 -1.50381,-0.9089 -1.50381,-2.33008 0,-1.42119 0.49576,-2.33009 1.50381,-2.33009 0.99153,0 1.50382,0.9089 1.50382,2.33009 0,1.42118 -0.51229,2.33008 -1.50382,2.33008 z m 5.6517,4.80889 h 2.42923 v -2.39618 l -0.0826,-1.30551 c 0.57839,0.54534 1.23941,0.85932 1.95,0.85932 1.76822,0 3.45381,-1.61949 3.45381,-4.42881 0,-2.52838 -1.22288,-4.1644 -3.20593,-4.1644 -0.85932,0 -1.68559,0.42966 -2.33008,1.00805 h -0.0661 l -0.16526,-0.80974 h -1.98304 z m 3.73474,-4.82542 c -0.41314,0 -0.87585,-0.1322 -1.30551,-0.52881 v -3.35466 c 0.47924,-0.51229 0.9089,-0.74364 1.40466,-0.74364 0.975,0 1.42118,0.74364 1.42118,2.2144 0,1.68559 -0.67754,2.41271 -1.52033,2.41271 z m 9.40295,1.98305 c 0.975,0 2.06567,-0.34703 2.90847,-0.92542 l -0.80975,-1.47076 c -0.59491,0.36356 -1.15677,0.54533 -1.76821,0.54533 -1.09068,0 -1.91695,-0.54533 -2.13178,-1.73516 h 4.90804 c 0.0496,-0.19831 0.0992,-0.64449 0.0992,-1.07415 0,-2.23093 -1.15678,-3.93305 -3.48686,-3.93305 -1.96653,0 -3.86695,1.63602 -3.86695,4.29661 0,2.71016 1.80127,4.2966 4.14788,4.2966 z m -1.8178,-5.18898 c 0.16526,-1.0411 0.82627,-1.55338 1.58644,-1.55338 0.975,0 1.37161,0.64449 1.37161,1.55338 z m 6.70931,4.99067 h 2.42923 v -5.536 c 0.52882,-0.51229 0.9089,-0.79322 1.52034,-0.79322 0.69407,0 1.00805,0.36355 1.00805,1.55338 v 4.77584 h 2.42923 v -5.08982 c 0,-2.04915 -0.76017,-3.30508 -2.54491,-3.30508 -1.1072,0 -1.93347,0.57839 -2.62754,1.23941 h -0.0661 l -0.16525,-1.0411 h -1.98305 z m 12.9394,0.19831 c 2.57796,0 4.06524,-1.55339 4.06524,-3.33813 0,-1.52034 -0.82627,-2.39618 -2.13177,-2.925 l -1.38814,-0.56186 c -0.92542,-0.38009 -1.63601,-0.61144 -1.63601,-1.27246 0,-0.61144 0.52881,-0.975 1.37161,-0.975 0.85932,0 1.52033,0.31399 2.23093,0.85933 l 1.2394,-1.53687 c -0.92542,-0.92542 -2.23093,-1.42118 -3.47033,-1.42118 -2.24746,0 -3.8339,1.42118 -3.8339,3.20593 0,1.56991 1.05763,2.49533 2.16483,2.94152 l 1.40466,0.59491 c 0.94195,0.39661 1.55339,0.61144 1.55339,1.28898 0,0.64449 -0.49576,1.0411 -1.50381,1.0411 -0.89237,0 -1.8839,-0.46271 -2.66059,-1.12372 l -1.38814,1.66906 c 1.09068,1.02458 2.57797,1.55339 3.98263,1.55339 z m 10.14659,0 c 2.77626,0 4.24703,-1.56991 4.24703,-5.18898 v -5.78389 h -2.34661 v 6.03177 c 0,2.11526 -0.69407,2.84237 -1.90042,2.84237 -1.20636,0 -1.86737,-0.72711 -1.86737,-2.84237 v -6.03177 h -2.44576 v 5.78389 c 0,3.61907 1.52033,5.18898 4.31313,5.18898 z m 9.86567,0 c 2.57797,0 4.06525,-1.55339 4.06525,-3.33813 0,-1.52034 -0.82627,-2.39618 -2.13177,-2.925 l -1.38814,-0.56186 c -0.92542,-0.38009 -1.63601,-0.61144 -1.63601,-1.27246 0,-0.61144 0.52881,-0.975 1.37161,-0.975 0.85932,0 1.52033,0.31399 2.23092,0.85933 l 1.23941,-1.53687 c -0.92542,-0.92542 -2.23093,-1.42118 -3.47033,-1.42118 -2.24746,0 -3.8339,1.42118 -3.8339,3.20593 0,1.56991 1.05763,2.49533 2.16483,2.94152 l 1.40466,0.59491 c 0.94195,0.39661 1.55339,0.61144 1.55339,1.28898 0,0.64449 -0.49576,1.0411 -1.50381,1.0411 -0.89238,0 -1.8839,-0.46271 -2.66059,-1.12372 l -1.38814,1.66906 c 1.09068,1.02458 2.57797,1.55339 3.98262,1.55339 z m 5.89957,-0.19831 h 6.90761 v -2.04915 h -4.47838 v -2.47881 h 3.66864 v -2.03262 h -3.66864 v -2.16483 h 4.31313 v -2.04915 h -6.74236 z"
           id="path14" />
        <path
           style="font-size:8.2627px;text-align:start;text-anchor:start"
           d="m 186.77998,250.844 c 0.14873,-0.53707 0.2892,-1.16504 0.4214,-1.73516 h 0.0331 c 0.14047,0.56186 0.2892,1.19809 0.43793,1.73516 l 0.12394,0.49577 h -1.14852 z m -1.94999,2.72669 h 1.2394 l 0.33051,-1.28071 h 1.64428 l 0.3305,1.28071 h 1.28899 l -1.6856,-5.38728 h -1.46249 z m 6.64321,0.0992 c 1.09894,0 1.68559,-0.57839 1.68559,-1.32204 0,-0.7519 -0.58665,-1.0411 -1.1072,-1.23114 -0.4214,-0.15699 -0.78496,-0.25614 -0.78496,-0.52055 0,-0.20657 0.15699,-0.32224 0.47097,-0.32224 0.28093,0 0.57013,0.1322 0.85932,0.34703 l 0.54534,-0.72712 c -0.34703,-0.2644 -0.81801,-0.52055 -1.44597,-0.52055 -0.94195,0 -1.56991,0.52055 -1.56991,1.28072 0,0.67754 0.57012,1.01631 1.06588,1.20636 0.4214,0.16525 0.83454,0.28919 0.83454,0.56186 0,0.21483 -0.15699,0.34703 -0.52055,0.34703 -0.34704,0 -0.68581,-0.14873 -1.05763,-0.42966 l -0.54534,0.76017 c 0.41314,0.33877 1.03284,0.57013 1.56992,0.57013 z m 2.45402,-0.0992 h 1.21462 v -4.09829 h -1.21462 z m 0.60318,-4.70147 c 0.40487,0 0.68581,-0.24788 0.68581,-0.63623 0,-0.38008 -0.28094,-0.63623 -0.68581,-0.63623 -0.40487,0 -0.6858,0.25615 -0.6858,0.63623 0,0.38835 0.28093,0.63623 0.6858,0.63623 z m 2.71016,4.80063 c 0.46271,0 0.8428,-0.21483 1.18983,-0.52055 h 0.0331 l 0.0826,0.42139 h 0.99152 v -2.3466 c 0,-1.25593 -0.57839,-1.85085 -1.62775,-1.85085 -0.64449,0 -1.23114,0.2231 -1.75169,0.53708 l 0.43792,0.80148 c 0.39661,-0.23136 0.73538,-0.37182 1.08241,-0.37182 0.44619,0 0.61971,0.23135 0.64449,0.59491 -1.61949,0.16526 -2.30529,0.63623 -2.30529,1.49555 0,0.69407 0.47097,1.23941 1.22288,1.23941 z m 0.41313,-0.94195 c -0.28919,0 -0.47097,-0.12394 -0.47097,-0.38835 0,-0.31398 0.28093,-0.56186 1.14025,-0.67754 v 0.71886 c -0.21483,0.21483 -0.39661,0.34703 -0.66928,0.34703 z m 6.30445,0.94195 c 1.28899,0 2.03263,-0.7767 2.03263,-1.66907 0,-0.76017 -0.41314,-1.19809 -1.06589,-1.4625 l -0.69407,-0.28093 c -0.46271,-0.19004 -0.818,-0.30572 -0.818,-0.63623 0,-0.30572 0.2644,-0.4875 0.6858,-0.4875 0.42966,0 0.76017,0.157 1.11546,0.42966 l 0.61971,-0.76843 c -0.46271,-0.46271 -1.11547,-0.71059 -1.73517,-0.71059 -1.12373,0 -1.91695,0.71059 -1.91695,1.60297 0,0.78495 0.52882,1.24766 1.08242,1.47076 l 0.70233,0.29745 c 0.47097,0.19831 0.77669,0.30572 0.77669,0.64449 0,0.32225 -0.24788,0.52055 -0.7519,0.52055 -0.44619,0 -0.94195,-0.23135 -1.3303,-0.56186 l -0.69407,0.83453 c 0.54534,0.51229 1.28898,0.7767 1.99131,0.7767 z m 4.08178,0 c 0.56186,0 0.94194,-0.25615 1.28898,-0.66928 h 0.0248 l 0.0909,0.57012 h 0.99153 v -4.09829 h -1.21462 v 2.71016 c -0.23962,0.32225 -0.4214,0.45445 -0.72712,0.45445 -0.35529,0 -0.51228,-0.19004 -0.51228,-0.77669 v -2.38792 h -1.21462 v 2.54491 c 0,1.02457 0.38008,1.65254 1.27246,1.65254 z m 3.46207,-0.0992 h 1.21462 v -2.768 c 0.25614,-0.26441 0.49576,-0.39661 0.69407,-0.39661 0.34703,0 0.50402,0.18178 0.50402,0.77669 v 2.38792 h 1.21462 v -2.768 c 0.26441,-0.26441 0.49576,-0.39661 0.70233,-0.39661 0.34703,0 0.50402,0.18178 0.50402,0.77669 v 2.38792 h 1.21462 v -2.54491 c 0,-1.02457 -0.39661,-1.65254 -1.28072,-1.65254 -0.54534,0 -0.92542,0.31399 -1.28898,0.68581 -0.20657,-0.43793 -0.5536,-0.68581 -1.13199,-0.68581 -0.53708,0 -0.90063,0.2892 -1.2394,0.62797 h -0.0331 l -0.0826,-0.52881 h -0.99153 z m 7.08114,0 h 1.21462 v -2.768 c 0.25614,-0.26441 0.49576,-0.39661 0.69406,-0.39661 0.34704,0 0.50403,0.18178 0.50403,0.77669 v 2.38792 h 1.21462 v -2.768 c 0.2644,-0.26441 0.49576,-0.39661 0.70233,-0.39661 0.34703,0 0.50402,0.18178 0.50402,0.77669 v 2.38792 h 1.21462 v -2.54491 c 0,-1.02457 -0.39661,-1.65254 -1.28072,-1.65254 -0.54534,0 -0.92542,0.31399 -1.28898,0.68581 -0.20657,-0.43793 -0.5536,-0.68581 -1.13199,-0.68581 -0.53708,0 -0.90064,0.2892 -1.23941,0.62797 h -0.0331 l -0.0826,-0.52881 h -0.99152 z m 7.08114,0 h 1.21462 v -4.09829 h -1.21462 z m 0.60318,-4.70147 c 0.40487,0 0.6858,-0.24788 0.6858,-0.63623 0,-0.38008 -0.28093,-0.63623 -0.6858,-0.63623 -0.40488,0 -0.68581,0.25615 -0.68581,0.63623 0,0.38835 0.28093,0.63623 0.68581,0.63623 z m 3.25549,4.80063 c 0.39661,0 0.69407,-0.0826 0.9089,-0.14873 l -0.19005,-0.88411 c -0.10741,0.0413 -0.25614,0.0826 -0.38834,0.0826 -0.32225,0 -0.52882,-0.19005 -0.52882,-0.65276 v -1.64427 h 0.98327 v -0.95021 h -0.98327 v -1.09068 h -1.00804 l -0.14047,1.09068 -0.62797,0.0496 v 0.90064 h 0.56187 v 1.6608 c 0,0.95021 0.39661,1.58644 1.41292,1.58644 z m 3.00763,-0.0992 h 3.69342 v -1.02457 h -1.05762 c -0.24788,0 -0.61144,0.0331 -0.87585,0.0661 0.85106,-0.89237 1.67733,-1.83432 1.67733,-2.71843 0,-1.00805 -0.70233,-1.66906 -1.73517,-1.66906 -0.7519,0 -1.2394,0.28093 -1.75995,0.83453 l 0.66101,0.65275 c 0.26441,-0.28093 0.5536,-0.53707 0.93369,-0.53707 0.45445,0 0.74364,0.28093 0.74364,0.79322 0,0.74364 -0.94195,1.64427 -2.2805,2.90847 z m 6.23833,0.0992 c 1.12373,0 1.87564,-0.95848 1.87564,-2.74322 0,-1.78474 -0.75191,-2.7019 -1.87564,-2.7019 -1.12372,0 -1.87563,0.91716 -1.87563,2.7019 0,1.78474 0.75191,2.74322 1.87563,2.74322 z m 0,-0.94195 c -0.40487,0 -0.72711,-0.37182 -0.72711,-1.80127 0,-1.43771 0.32224,-1.75995 0.72711,-1.75995 0.41314,0 0.72712,0.32224 0.72712,1.75995 0,1.42945 -0.31398,1.80127 -0.72712,1.80127 z m 2.48708,0.84279 h 3.69342 v -1.02457 h -1.05762 c -0.24788,0 -0.61144,0.0331 -0.87585,0.0661 0.85106,-0.89237 1.67733,-1.83432 1.67733,-2.71843 0,-1.00805 -0.70233,-1.66906 -1.73517,-1.66906 -0.7519,0 -1.2394,0.28093 -1.75995,0.83453 l 0.66101,0.65275 c 0.26441,-0.28093 0.5536,-0.53707 0.93369,-0.53707 0.45445,0 0.74364,0.28093 0.74364,0.79322 0,0.74364 -0.94195,1.64427 -2.2805,2.90847 z m 6.09786,0.0992 c 1.02458,0 1.92521,-0.66928 1.92521,-1.83432 0,-1.11547 -0.76843,-1.62775 -1.66906,-1.62775 -0.21483,0 -0.38835,0.033 -0.58665,0.12394 l 0.0909,-0.98327 h 1.92521 v -1.02457 h -2.97458 l -0.14873,2.65233 0.54534,0.34703 c 0.31399,-0.1983 0.47098,-0.26441 0.7767,-0.26441 0.4875,0 0.82627,0.28094 0.82627,0.80975 0,0.53707 -0.34704,0.81801 -0.88411,0.81801 -0.44619,0 -0.81801,-0.23136 -1.13199,-0.52055 l -0.54534,0.76843 c 0.41313,0.41313 0.99152,0.73538 1.85084,0.73538 z"
           id="path15" />
      </g>
    </g>
    <text
       xml:space="preserve"
       style="font-weight:bold;font-size:12.7px;line-height:0.7;font-family:'Source Sans Pro';-inkscape-font-specification:'Source Sans Pro Bold';text-align:start;writing-mode:lr-tb;direction:ltr;text-anchor:start;vector-effect:non-scaling-stroke;fill:#ffffff;fill-opacity:1;stroke:none;stroke-width:0.264583;-inkscape-stroke:hairline"
       x="304.98254"
       y="56.569344"
       id="text14"><tspan
         sodipodi:role="line"
         id="tspan14"
         style="stroke-width:0.264583"
         x="304.98254"
         y="56.569344" /></text>
  </g>
</svg>
