<svg class="icon icon-2x mr-2" xmlns="http://www.w3.org/2000/svg" viewBox="0 0 24 24" version="1.1">
  <path d="M 11.236501,4.4887391 C 9.5467065,4.4968291 7.3818955,4.7712998 4.7289305,6.4024289 L 4.6243475,6.46761 c -1.664138,1.0380053 -2.813029,2.3180403 -3.413589,3.805115 -0.188357,0.467984 -0.441654,1.52385 -0.190563,2.517458 0.10812,0.434311 0.309779,0.870865 0.58165,1.261438 0.614509,0.882691 1.645618,1.46836 2.755919,1.567279 1.567694,0.14021 2.754811,-0.563919 3.177033,-1.882345 0.29029,-0.909689 7.5e-5,-2.244435 -1.112768,-2.92539 -0.905189,-0.554273 -1.878558,-0.428184 -2.443195,-0.05464 -0.489815,0.324751 -0.767275,0.829311 -0.7624,1.383598 0.01131,0.983184 0.858276,1.505795 1.467236,1.50737 0.176905,0 0.354672,-0.0307 0.554992,-0.09594 0.07129,-0.0217 0.138319,-0.0487 0.212241,-0.09448 l 0.02314,-0.01362 0.01465,-0.0097 -0.005,0.0029 c 0.138763,-0.09457 0.222348,-0.248415 0.222348,-0.413351 0,-0.04498 -0.0063,-0.09061 -0.01919,-0.136514 -0.07194,-0.248984 -0.317954,-0.39958 -0.572862,-0.35315 l -0.03442,0.0082 -0.04658,0.01421 -0.06767,0.02329 c -0.140211,0.03446 -0.245118,0.03744 -0.267609,0.03823 -0.07129,-0.0046 -0.421847,-0.109536 -0.421847,-0.493473 v -0.0053 c 0,-0.140998 0.05657,-0.239911 0.08774,-0.293974 0.109043,-0.170989 0.407647,-0.338901 0.81103,-0.303789 0.529412,0.04577 0.911078,0.317292 1.163886,0.829485 0.234652,0.476143 0.173263,1.061918 -0.158192,1.490965 -0.32922,0.425108 -0.915288,0.605808 -1.69471,0.521889 -0.786022,-0.08694 -1.450383,-0.539355 -1.822583,-1.243423 -0.364213,-0.688296 -0.384199,-1.504321 -0.05156,-2.131204 0.795622,-1.502074 2.298646,-1.4863198 3.122691,-1.3439044 1.219418,0.2115008 2.606627,1.3363104 3.098669,2.6352234 0.07944,0.207031 0.11988,0.371231 0.155262,0.521303 l 0.05317,0.224252 1.3777395,0.672612 c 0.02959,0.01445 0.03958,0.01935 0.05141,0.01055 0.01421,-0.01057 0.006,-0.0397 0.006,-0.0397 -0.0085,-0.03078 -0.02852,-0.05918 -0.06035,-0.444696 -0.02618,-0.342112 -0.07943,-1.278757 0.392112,-1.742901 0.183093,-0.181383 0.462112,-0.343367 0.682425,-0.395188 0.902939,-0.220575 1.961708,-0.06839 2.96274,1.090356 0.518231,0.59846 0.770926,0.871441 0.897743,0.993683 0,0 0.02891,0.02725 0.04424,0.03984 0.01675,0.01376 0.02757,0.02537 0.052,0.03896 0.04184,0.02328 1.721515,0.796382 1.721515,0.796382 0,0 0.01988,0.01 0.03457,-0.0082 0.01452,-0.01796 7.5e-4,-0.03589 7.5e-4,-0.03589 -0.01118,-0.01276 -1.064945,-1.374529 -0.877383,-2.495779 0.14771,-0.893115 0.858512,-0.812181 1.841771,-0.701174 0.320933,0.03749 0.686272,0.07946 1.064577,0.08788 1.05623,0.0067 2.194012,-0.188354 2.895215,-0.495084 0.453644,-0.197161 0.743157,-0.328536 0.924549,-0.4934724 0.06524,-0.054059 0.09907,-0.1416835 0.134316,-0.2361172 l 0.02461,-0.062398 c 0.02933,-0.076547 0.07246,-0.2378098 0.0914,-0.3261989 0.0076,-0.038933 0.01669,-0.077062 -0.01553,-0.1019459 -0.02945,-0.022751 -0.09711,0.018016 -0.09711,0.018016 -0.307916,0.1853275 -1.077593,0.5363384 -1.797244,0.5513299 -0.89349,0.01802 -2.703844,-0.9046139 -2.891407,-1.0020324 -0.125534,-0.2989074 -0.251003,-0.5978343 -0.378344,-0.8959843 1.295163,0.8533677 2.369362,1.324915 3.19168,1.3976601 0.915464,0.081549 1.629154,-0.4177894 1.938883,-0.625593 0.04055,-0.026956 0.08103,-0.057122 0.118206,-0.086127 h 1.5e-4 c 0.0067,-0.00519 0.02223,-0.018883 0.02021,-0.031492 C 23.341388,8.1821426 22.863276,6.625935 22.50144,6.2517101 22.401742,6.1497769 22.321953,6.0493752 22.160302,5.9548065 20.85134,5.1920328 17.745893,4.731725 17.600403,4.7106514 c 0,0 -0.01463,-0.00315 -0.02475,0.00673 -0.0079,0.00768 -0.0094,0.022557 -0.0094,0.022557 0,0 -0.01193,0.6434395 -0.01377,0.7153814 C 17.235359,5.348787 14.929757,4.604015 12.768478,4.5290201 12.310258,4.5129082 11.799766,4.4860413 11.236501,4.4887391 Z m 9.835911,1.5365177 c 0.731966,0.026175 1.307215,0.6440935 1.282091,1.3752493 C 22.340693,7.7552473 22.192261,8.0844737 21.933536,8.3252 21.674031,8.5689261 21.336133,8.6941272 20.979547,8.682158 20.248369,8.655194 19.673811,8.038717 19.698334,7.3069087 c 0.01315,-0.3547412 0.16173,-0.6839495 0.421115,-0.9254258 0.259505,-0.2422788 0.597989,-0.3675428 0.952963,-0.3562261 z m -0.01113,0.3912337 c -0.248331,-0.00894 -0.483748,0.078788 -0.663676,0.2475419 -0.179936,0.1687537 -0.286036,0.397384 -0.293535,0.6449274 -0.01723,0.5115256 0.383285,0.9419022 0.893641,0.9607259 0.248195,0.0075 0.484742,-0.080253 0.665727,-0.2490065 0.180723,-0.1695411 0.284613,-0.3983065 0.292509,-0.6449274 0.01723,-0.5113906 -0.383126,-0.9411125 -0.894666,-0.9592613 z m 0.151601,0.4652028 c 0.227279,0 0.411447,0.1223137 0.411447,0.2744935 0,0.1507324 -0.184295,0.2737609 -0.411447,0.2737609 -0.227288,0 -0.411008,-0.123021 -0.411008,-0.2737609 0,-0.1521798 0.18372,-0.2744935 0.411008,-0.2744935 z m -0.684769,8.1070727 v 4.5e-4 c -0.173223,0 -0.30408,0.12846 -0.30408,0.298661 v 2.951609 c 0,0.169414 0.127783,0.296903 0.297196,0.296903 h 2.352235 c 0.18112,0 0.311991,-0.125127 0.311991,-0.296903 v -0.07822 c 0,-0.172436 -0.130871,-0.298369 -0.311991,-0.298369 h -1.926433 v -0.751414 h 1.411575 c 0.180723,0 0.31199,-0.126878 0.31199,-0.298661 v -0.07792 c 0,-0.172571 -0.131267,-0.297783 -0.31199,-0.297783 h -1.411575 v -0.773972 h 1.828441 c 0.180461,0 0.311991,-0.124424 0.311991,-0.297783 v -0.07807 c 0,-0.172571 -0.13153,-0.298515 -0.311991,-0.298515 z m -10.481277,4.5e-4 c -0.5837305,0 -0.9049195,0.493569 -0.9049195,0.834758 v 0.437959 c 0,0.502444 0.410566,0.813813 0.791255,0.813813 h 1.3362865 c 0.168356,0 0.2036,0.110166 0.2036,0.20316 v 0.282696 c 0,0.02999 -0.0061,0.301444 -0.2036,0.301444 H 9.4468775 c -0.18112,0 -0.311991,0.125933 -0.311991,0.298369 v 0.07822 c 0,0.171776 0.130871,0.296904 0.311991,0.296904 h 1.9217455 c 0.502316,0 0.826409,-0.349469 0.826409,-0.890858 v -0.472527 c 0,-0.508361 -0.365209,-0.735595 -0.727832,-0.735595 h -1.314901 c -0.1979495,0 -0.2876765,-0.148584 -0.2876765,-0.253547 v -0.260871 c 0,-0.164284 0.109844,-0.259553 0.3018845,-0.259553 h 1.455518 c 0.178487,0 0.312723,-0.128242 0.312723,-0.297783 v -0.07807 c 0,-0.170202 -0.136578,-0.298515 -0.318876,-0.298515 z m 3.079334,0 c -0.175068,0 -0.312724,0.138198 -0.312724,0.312869 v 2.322354 c 0,0.540722 0.425445,0.932897 1.011554,0.932897 h 1.086255 c 0.585313,0 1.010528,-0.392048 1.010528,-0.932897 v -2.322354 c 0,-0.174671 -0.137186,-0.312869 -0.311992,-0.312869 h -0.09887 c -0.172563,0 -0.311551,0.140298 -0.311551,0.312869 v 2.237692 c 0,0.179275 -0.146229,0.323269 -0.323269,0.323269 h -1.015801 c -0.177693,0 -0.323269,-0.143994 -0.323269,-0.323269 v -2.237692 c 0,-0.172571 -0.140141,-0.312869 -0.312577,-0.312869 z m 4.329347,0 c -0.583468,0 -0.905505,0.493569 -0.905505,0.834758 v 0.437959 c 0,0.502444 0.411329,0.813813 0.792281,0.813813 h 1.335994 c 0.168626,0 0.204039,0.110166 0.204039,0.20316 v 0.282696 c 0,0.02999 -0.0061,0.301444 -0.204039,0.301444 h -1.823461 c -0.180326,0 -0.311991,0.125933 -0.311991,0.298369 v 0.07822 c 0,0.171776 0.131665,0.296904 0.311991,0.296904 h 1.922331 c 0.502451,0 0.82802,-0.349469 0.82802,-0.890858 v -0.472527 c 0,-0.508361 -0.366226,-0.735595 -0.728857,-0.735595 h -1.314902 c -0.198481,0 -0.287968,-0.148584 -0.287968,-0.253547 v -0.260871 c 0,-0.164284 0.109852,-0.259553 0.301884,-0.259553 h 1.45625 c 0.17809,0 0.31199,-0.128242 0.31199,-0.297783 v -0.07807 c 0,-0.170202 -0.136523,-0.298515 -0.319608,-0.298515 H 17.455662 Z M 3.3837085,16.381007 c -0.20756,0 -0.36405,0.07428 -0.489664,0.135049 -0.07655,0.0367 -0.142942,0.0684 -0.194372,0.0684 -0.02328,0 -0.04309,-0.0106 -0.05361,-0.02783 l -0.0479,-0.09155 c -0.01197,-0.02407 -0.05991,-0.07119 -0.11923,-0.07119 h -0.07119 c -0.0684,0 -0.123185,0.06154 -0.123185,0.136515 v 2.822857 c 0,0.08852 0.06995,0.158192 0.158339,0.158192 h 0.06152 c 0.08773,0 0.159072,-0.07046 0.159072,-0.158192 v -0.936695 c 0,-0.02775 0.0179,-0.05771 0.03618,-0.05771 0.05143,0 0.117819,0.03006 0.194372,0.06518 0.125614,0.05774 0.282104,0.128898 0.489664,0.128898 h 0.0665 c 0.367506,0 0.596005,-0.209992 0.596005,-0.547375 v -1.077613 c 0,-0.332254 -0.233366,-0.54679 -0.596005,-0.54679 h -0.0665 z m 4.484025,0 c -0.206902,0 -0.363069,0.07421 -0.489079,0.134317 -0.07839,0.03683 -0.145366,0.06914 -0.200083,0.06914 -0.02407,0 -0.03376,-0.0031 -0.05244,-0.03545 l -0.0435,-0.07939 c -0.02499,-0.05025 -0.0676,-0.07573 -0.124944,-0.07573 h -0.06108 c -0.07392,0 -0.127873,0.05773 -0.127873,0.136515 v 1.851584 c 0,0.08773 0.06932,0.158192 0.158633,0.158193 h 0.06123 c 0.08773,0 0.159218,-0.07125 0.159218,-0.158193 V 16.98111 c 0,-0.13127 0.107189,-0.239046 0.23846,-0.239046 h 0.52599 c 0.131666,0 0.2389,0.107776 0.2389,0.239046 v 1.400883 c 0,0.08773 0.06967,0.158193 0.158193,0.158193 h 0.06181 c 0.08773,0 0.159071,-0.07125 0.159071,-0.158193 v -1.454199 c 0,-0.332255 -0.233543,-0.546789 -0.596444,-0.546789 z m -2.756944,0.01289 v 3e-4 c -0.294767,0 -0.534046,0.229424 -0.534046,0.512221 v 1.104564 c 0,0.286481 0.232569,0.529506 0.506948,0.529506 h 0.742773 c 0.09181,0 0.158192,-0.06372 0.158192,-0.150136 v -0.04863 c 0,-0.08694 -0.06638,-0.149257 -0.158192,-0.149257 h -0.610213 c -0.170994,0 -0.261311,-0.08407 -0.261311,-0.243881 v -0.323268 h 1.100903 c 0.177044,0 0.28167,-0.107935 0.28167,-0.290899 v -0.428292 c 0,-0.282666 -0.239584,-0.512221 -0.533167,-0.512221 z m -4.576157,3e-4 c -0.294767,0 -0.534632,0.229424 -0.534632,0.512221 v 1.112914 c 0,0.287269 0.232123,0.521302 0.516762,0.521302 h 0.719922 c 0.284639,0 0.516763,-0.234033 0.516763,-0.521302 v -1.112914 c 0,-0.282665 -0.239997,-0.512221 -0.534633,-0.512221 z m 2.368054,0.347877 h 0.525697 c 0.134296,0 0.239193,0.104882 0.239193,0.239046 v 0.972005 c 0,0.131929 -0.10766,0.239193 -0.239193,0.239193 h -0.525697 c -0.131665,0 -0.239193,-0.107264 -0.239193,-0.239193 V 16.98112 c 0,-0.134296 0.105028,-0.239046 0.239193,-0.239046 z m -2.306242,1.5e-4 h 0.560998 c 0.117065,0 0.216636,0.0997 0.216636,0.216635 V 17.9751 c 0,0.119958 -0.09694,0.217514 -0.216636,0.217514 h -0.565099 c -0.119959,0 -0.213413,-0.09545 -0.213413,-0.217514 v -1.016241 c 0,-0.11917 0.09782,-0.216635 0.217514,-0.216635 z m 4.57191,0 h 0.578281 c 0.11917,0 0.212095,0.09367 0.212095,0.212973 v 0.344948 h -1.00379 c 1.35e-4,-0.04498 1.5e-4,-0.344948 1.5e-4,-0.344948 0,-0.119301 0.09384,-0.212973 0.213267,-0.212973 z M 23.710858,17.82262 c -0.160209,0 -0.290312,0.130403 -0.290312,0.293241 0,0.165338 0.130104,0.294268 0.290312,0.294268 C 23.87225,18.410129 24,18.281199 24,18.115861 24,17.952891 23.872385,17.82262 23.712176,17.82262 Z m 0,0.04555 h 0.0013 c 0.130219,0 0.234505,0.11075 0.234505,0.248861 0,0.13811 -0.104286,0.248842 -0.234505,0.247394 -0.130218,1e-6 -0.235678,-0.109287 -0.235678,-0.248713 0,-0.136795 0.105456,-0.247542 0.234359,-0.247542 z m -0.01421,0.08334 c -0.03907,0 -0.06521,0.004 -0.09257,0.0079 v 0.326932 h 0.05214 1.49e-4 v -0.140616 h 0.03647 c 0.0417,0 0.06242,0.01571 0.07031,0.05727 0.0064,0.04301 0.01422,0.0731 0.02212,0.08349 h 0.05463 c -0.0053,-0.01039 -0.01276,-0.02995 -0.02065,-0.08085 -0.0066,-0.04827 -0.02611,-0.07426 -0.05478,-0.07939 v -0.0028 c 0.03512,-0.01052 0.06372,-0.03651 0.06372,-0.07939 0,-0.03144 -0.01043,-0.05361 -0.03003,-0.06782 -0.01947,-0.01434 -0.05192,-0.02475 -0.101506,-0.02475 z m -0.0026,0.04028 c 0.05866,0 0.07939,0.02874 0.07939,0.05742 0,0.04051 -0.03638,0.05595 -0.07939,0.05595 h -0.03779 v -0.110589 c 0.0091,-0.0014 0.02082,-0.0028 0.03779,-0.0028 z" />
</svg>