<?xml version="1.0" encoding="UTF-8"?>
<!DOCTYPE svg PUBLIC "-//W3C//DTD SVG 1.1//EN" "http://www.w3.org/Graphics/SVG/1.1/DTD/svg11.dtd">
<svg version="1.1" xmlns="http://www.w3.org/2000/svg" xmlns:xlink="http://www.w3.org/1999/xlink" x="0" y="0" width="180" height="165" viewBox="0, 0, 180, 165">
  <g id="Layer_1">
    <path d="M148.462,130.726 L134.906,130.726 C133.862,130.726 133.01,129.877 133.01,128.831 L133.01,121.982 L146.093,121.982 C147.217,121.982 148.13,121.071 148.13,119.946 C148.13,118.821 147.217,117.91 146.093,117.91 L133.01,117.91 L133.01,111.171 C133.01,110.125 133.862,109.273 134.906,109.273 L148.462,109.273 C149.642,109.273 150.6,108.318 150.6,107.138 C150.6,105.958 149.642,105 148.462,105 L134.906,105 C131.507,105 128.738,107.768 128.738,111.171 L128.738,128.831 C128.738,132.232 131.507,135 134.906,135 L148.462,135 C149.642,135 150.6,134.044 150.6,132.864 C150.6,131.683 149.642,130.726 148.462,130.726 M108.601,117.965 C105.736,117.451 103.743,116.842 102.627,116.133 C101.511,115.424 100.952,114.466 100.952,113.259 C100.952,111.963 101.525,110.899 102.672,110.069 C103.819,109.24 105.432,108.825 107.516,108.825 C109.627,108.825 111.317,109.231 112.585,110.047 C113.266,110.485 113.888,111.069 114.448,111.797 C115.274,112.868 116.832,113.009 117.837,112.105 C118.783,111.251 118.866,109.786 118.014,108.837 C116.987,107.688 115.817,106.778 114.507,106.109 C112.561,105.114 110.215,104.616 107.471,104.616 C105.116,104.616 103.057,105.024 101.294,105.838 C99.529,106.651 98.176,107.754 97.243,109.141 C96.306,110.528 95.839,112.068 95.839,113.757 C95.839,115.357 96.207,116.715 96.949,117.83 C97.686,118.947 98.872,119.882 100.501,120.636 C102.129,121.391 104.316,122.024 107.063,122.537 C109.809,123.05 111.731,123.638 112.832,124.301 C113.934,124.966 114.485,125.84 114.485,126.925 C114.485,128.284 113.874,129.333 112.65,130.071 C111.431,130.811 109.748,131.18 107.606,131.18 C105.343,131.18 103.45,130.758 101.926,129.913 C101.056,129.43 100.277,128.79 99.586,127.993 C98.718,126.985 97.162,126.962 96.222,127.902 L96.213,127.911 C95.353,128.77 95.287,130.162 96.099,131.066 C98.681,133.949 102.533,135.388 107.65,135.388 C110.004,135.388 112.078,135.034 113.874,134.325 C115.669,133.617 117.063,132.599 118.059,131.271 C119.056,129.943 119.553,128.404 119.553,126.654 C119.553,125.025 119.191,123.661 118.467,122.559 C117.742,121.459 116.59,120.538 115.005,119.799 C113.422,119.059 111.286,118.449 108.601,117.965 M41.771,117.975 C38.905,117.459 36.913,116.852 35.796,116.143 C34.68,115.432 34.122,114.475 34.122,113.267 C34.122,111.971 34.696,110.907 35.842,110.077 C36.989,109.249 38.602,108.833 40.685,108.833 C42.795,108.833 44.485,109.24 45.753,110.055 C46.436,110.493 47.057,111.077 47.617,111.807 C48.442,112.877 50.001,113.017 51.007,112.114 C51.953,111.258 52.035,109.795 51.183,108.845 C50.156,107.697 48.985,106.788 47.676,106.117 C45.73,105.122 43.383,104.625 40.639,104.625 C38.285,104.625 36.227,105.032 34.462,105.846 C32.697,106.661 31.346,107.763 30.411,109.149 C29.476,110.538 29.009,112.076 29.009,113.766 C29.009,115.365 29.377,116.724 30.117,117.838 C30.856,118.956 32.041,119.891 33.67,120.645 C35.299,121.399 37.486,122.032 40.231,122.546 C42.977,123.059 44.9,123.647 46.002,124.311 C47.102,124.973 47.654,125.849 47.654,126.934 C47.654,128.292 47.042,129.341 45.821,130.08 C44.599,130.82 42.917,131.189 40.776,131.189 C38.512,131.189 36.619,130.767 35.096,129.921 C34.225,129.438 33.446,128.798 32.757,128.001 C31.889,126.994 30.33,126.97 29.39,127.911 L29.382,127.92 C28.522,128.778 28.457,130.171 29.267,131.075 C31.85,133.957 35.701,135.397 40.82,135.397 C43.173,135.397 45.247,135.042 47.042,134.333 C48.838,133.625 50.232,132.606 51.228,131.279 C52.225,129.953 52.722,128.412 52.722,126.662 C52.722,125.034 52.36,123.669 51.635,122.568 C50.911,121.467 49.759,120.547 48.173,119.808 C46.59,119.067 44.456,118.457 41.771,117.975 M86.342,107.06 L86.342,123.487 C86.342,127.409 85.302,130.373 83.221,132.38 C81.138,134.386 78.107,135.388 74.125,135.388 C70.142,135.388 67.109,134.386 65.028,132.38 C62.947,130.373 61.906,127.409 61.906,123.487 L61.906,107.06 C61.906,105.71 63,104.616 64.349,104.616 C65.697,104.616 66.794,105.71 66.794,107.06 L66.794,122.899 C66.794,125.735 67.389,127.824 68.581,129.166 C69.773,130.508 71.619,131.18 74.125,131.18 C76.629,131.18 78.476,130.508 79.668,129.166 C80.86,127.824 81.455,125.735 81.455,122.899 L81.455,107.06 C81.455,105.71 82.55,104.616 83.9,104.616 C85.248,104.616 86.342,105.71 86.342,107.06" fill="#FFFFFF"/>
    <path d="M144.823,47.49 C144.051,46.691 142.775,46.691 142.003,47.491 C141.135,48.358 141.237,49.854 142.317,50.57 C142.974,51.006 143.852,51.006 144.51,50.57 C145.587,49.854 145.691,48.357 144.823,47.49 M142.244,40.71 C136.917,39.461 132.13,44.248 133.38,49.575 C134.015,52.287 136.17,54.441 138.884,55.078 C144.212,56.33 149.002,51.538 147.749,46.209 C147.11,43.496 144.956,41.343 142.244,40.71 M107.064,70.709 C103.591,69.425 102.249,69.683 97.809,69.742 C94.733,69.782 94.621,69.679 91.109,69.679 C90.025,69.679 89.624,74.878 93.55,75.958 C95.269,76.431 97.125,76.729 98.417,78.051 C98.989,78.635 99.312,79.517 97.989,79.517 L88.243,79.517 C86.537,79.517 84.928,79.557 83.625,78.453 C81.656,76.791 80.737,74.502 79.754,72.231 C78.731,69.869 77.629,67.545 76.335,65.322 C73.76,60.898 70.359,56.895 65.794,54.45 C60.093,51.394 50.421,49.877 42.762,55.759 C34.691,61.957 36.421,73.567 43.48,79.245 C46.268,81.489 49.903,82.428 53.475,82.217 C60.457,81.811 65.606,76.665 64.328,70.333 C63.901,68.213 62.665,66.207 60.802,65.113 C59.477,64.339 57.909,64.063 56.373,64.06 C54.725,64.057 52.97,64.397 51.785,65.544 C50.383,66.902 50.155,69.3 51.276,70.9 C51.897,71.785 52.907,72.533 52.735,73.688 C52.618,74.469 51.974,75.049 51.205,75.22 C49.896,75.512 48.698,74.767 47.813,73.855 C45.544,71.517 44.834,67.797 46.082,64.788 C47.715,60.847 52.256,58.678 56.518,58.819 C62.014,59.004 67.194,62.63 69.448,67.647 C71.702,72.664 71.027,78.822 67.921,83.364 C61.019,93.45 43.976,92.259 36.057,83.754 C31.091,78.417 28.391,73.238 28.769,63.594 C29.035,56.78 32.969,50.069 37.981,45.345 C46.148,37.649 56.904,32.386 67.847,30.116 C74.494,28.745 81.356,28.422 88.104,29.095 C94.053,29.687 99.97,30.777 105.688,32.547 C108.526,33.432 111.319,34.482 114.021,35.723 C116.403,36.817 119.526,38.008 121.38,39.897 C121.38,36.477 121.247,32.719 121.247,30.102 C121.247,29.103 122.296,28.429 123.194,28.855 C127.065,30.652 136.232,34.983 142.345,37.777 C150.54,41.522 151.12,50.356 151.407,58.185 C151.414,58.36 151.42,58.541 151.341,58.698 C151.085,59.234 149.704,59.088 149.197,59.094 C148.216,59.105 146.739,59.099 145.761,59.142 C143.803,59.229 141.898,59.193 139.942,59.094 C136.325,58.919 132.827,57.307 130.485,55.346 C130.251,55.15 129.495,54.935 129.14,55.306 C128.771,55.687 128.895,56.283 129.097,56.488 C130.439,57.843 131.896,58.719 133.59,59.595 C135.741,60.699 138.088,60.979 140.467,61.117 C143.015,61.268 145.581,61.231 148.122,60.97 C150.244,60.753 150.794,60.608 148.7,62.164 C146.858,63.53 144.725,64.513 142.558,65.241 C139.455,66.297 136.175,66.821 132.902,66.912 C130.919,66.965 128.933,66.861 126.965,66.605 C125.948,66.478 124.937,66.295 123.915,66.19 C123.085,66.107 122.224,65.952 121.398,66.13 C120.649,66.295 119.953,66.7 119.482,67.311 C118.834,68.156 118.61,70.478 118.986,71.483 C119.709,73.433 121.297,74.566 122.975,75.565 C124.792,76.646 127.182,77.014 127.647,79.081 C127.744,79.514 123.881,79.524 123.443,79.517 L118.299,79.517 C118.299,79.517 115.504,79.584 114.417,79.188 C114.38,79.177 114.351,79.161 114.319,79.144 C113.726,78.826 113.469,78.034 113.269,77.434 C112.983,76.589 112.478,75.743 111.867,74.868 C110.706,73.211 108.92,71.396 107.064,70.709 M146.003,47.89 C146.003,50.905 143.564,53.344 140.549,53.344 C137.537,53.344 135.099,50.905 135.099,47.89 C135.099,44.88 137.537,42.438 140.549,42.438 C143.564,42.438 146.003,44.88 146.003,47.89" fill="#30BA78"/>
  </g>
</svg>
